<?xml version="1.0" encoding="utf-8"?>
<!-- Generator: Adobe Illustrator 22.0.1, SVG Export Plug-In . SVG Version: 6.00 Build 0)  -->
<svg version="1.1" xmlns="http://www.w3.org/2000/svg" xmlns:xlink="http://www.w3.org/1999/xlink" x="0px" y="0px"
	 viewBox="0 0 1122 1122" style="enable-background:new 0 0 1122 1122;" xml:space="preserve">
<style type="text/css">
	.st0{fill:#FFFFFF;}
	.st1{fill:#597B92;}
	.st2{fill:#ABA8A9;}
	.st3{fill:#C3A082;}
	.st4{fill:#0D4331;}
	.st5{fill:#6C645B;}
	.st6{fill:#B4B3A2;}
	.st7{fill:#F8F8F8;}
	.st8{fill:#0A0501;}
	.st9{fill:#C2E0EE;}
	.st10{opacity:0.45;fill:#F7F8F8;}
	.st11{fill:#80AFC1;}
	.st12{fill:#4A688D;}
	.st13{fill:#587E89;}
	.st14{fill:#F7F8F8;}
	.st15{fill:#FFFDFA;}
	.st16{fill:#8F5837;}
	.st17{fill:#9B734C;}
	.st18{fill:#F6A534;}
	.st19{fill:#F3E08E;}
	.st20{fill:#09453C;}
	.st21{fill:#03272C;}
	.st22{fill:#345948;}
	.st23{fill:#EB893D;}
	.st24{fill:#776764;}
	.st25{fill:#C4573C;}
	.st26{fill:#0A4236;}
	.st27{fill:#C1391E;}
	.st28{fill:#447762;}
	.st29{fill:#030930;}
	.st30{fill:#EEC130;}
	.st31{fill:#C19825;}
	.st32{fill:#AC5519;}
	.st33{fill:#F2F2ED;}
</style>
<g id="BG">
	<rect class="st0" width="1122" height="1122"/>
</g>
<g id="Object">
	<g>
		<path class="st1" d="M658.6,331.6c0,0,2.8,24.5,1.4,32.9s-12.7,34.3-8.9,54.1c3.8,19.8,24.2,124.4,24.2,124.4s0.9,4,8.2,3.3
			c7.3-0.7,55.5-13.6,55.5-13.6s2.8-0.5,1.2-6.6c-1.6-6.1-27.7-124.2-27.7-124.2s-0.7-11.1-16.9-29.9c-10.2-11.8-12.7-8.9-19.8-27
			l-6.3-16L658.6,331.6z"/>
		<polygon class="st0" points="655.9,443.4 718.2,427.6 727.1,467.6 663.8,484 		"/>
		<polygon class="st2" points="656.3,321.4 660.8,335.6 669,333.9 667.7,319.5 		"/>
	</g>
	<g>
		<path class="st3" d="M740.8,296.5c0,0-4.2,24.2-8,32c-3.8,7.7-21.9,29.3-23.9,49.3c-2,20-12.1,126.1-12.1,126.1s-0.2,4.1,7,5.5
			c7.2,1.4,57.1,2.7,57.1,2.7s2.8,0.4,3-6c0.2-6.3,8.6-126.9,8.6-126.9s2.5-10.8-7.8-33.4c-6.4-14.3-9.6-12.2-11.3-31.5l-1.5-17.1
			L740.8,296.5z"/>
		<polygon class="st0" points="706.5,403 770.7,405.5 767.8,446.3 702.5,444.2 		"/>
		<polygon class="st2" points="741.5,286.1 741.7,301 750.1,301.7 753,287.6 		"/>
	</g>
	<ellipse class="st4" cx="545.2" cy="804.3" rx="359.2" ry="38.7"/>
	<g>
		<polygon class="st5" points="807.4,471 807.5,486.2 802.2,480.4 		"/>
		<g>
			<polygon class="st5" points="699.8,455.9 701.9,432.4 769.3,434.7 			"/>
			<polygon class="st5" points="712.2,492.1 715.6,514.6 757.6,486.8 			"/>
		</g>
		<path class="st6" d="M579.1,481.4c0,0,17.7,10,41.4,0.2c23.7-9.8,241.8-82.4,241.8-82.4l-11.7,20l12.8-4.4
			c0,0-50.8,110.9-201.4,77.1c0,0-32.6-9.1-48.4,6.4c-15.8,15.5-21.1,22.4-21.1,22.4S597.1,499.7,579.1,481.4z"/>
		<polygon class="st5" points="811.6,444.8 772.5,453.9 784.7,469.9 		"/>
		<path class="st5" d="M802.8,419.1l16.1,47.2c0,0,35.8-26.1,44.7-51.9l-12.8,4.4l11.7-20L802.8,419.1z"/>
		
			<ellipse transform="matrix(2.191761e-02 -0.9998 0.9998 2.191761e-02 398.5558 1245.0894)" class="st7" cx="835.6" cy="418.9" rx="6.4" ry="6.4"/>
		<path class="st8" d="M837.9,418.1c0.6,1.7,0,3.4-1.2,3.8c-1.3,0.4-2.7-0.6-3.3-2.2c-0.6-1.7,0-3.4,1.2-3.8
			C835.8,415.4,837.3,416.4,837.9,418.1z"/>
		<path class="st5" d="M615,483.6l4.9,10.2l-27.3,26.9c0,0,2.4-20.2-13.4-39.3L615,483.6z"/>
	</g>
	<g>
		<path class="st9" d="M598.6,585.2c0,0-1.3-231.9,0-250.6c1.3-18.7-50.4-37.5-67.2-45.9c-16.8-8.4-10.3-43.9-10.3-43.9h-16.1l0,0
			l-16,0c0,0,6.5,35.5-10.3,43.9c-16.8,8.4-68.5,27.1-67.2,45.9c1.3,18.7,0,250.6,0,250.6s-3.9,27.8,23.3,27.1l70.4,0l0,0l70.2,0
			C602.5,613,598.6,585.2,598.6,585.2z"/>
		<path class="st10" d="M577.5,344.8c-3.9-22.2-39.4-41.2-54.3-51.7c-14.9-10.5-13.6-45.1-13.6-45.1l-7.8,0.7l-3.9,0
			c0,0,1.3,34-13.6,44.5c-14.9,10.5-50.4,29.4-54.3,51.7c-3.9,22.2,0,254.5,0,254.5s-1.9,9.2,5.8,10.5c6.9,1.2,57.3,0.2,67.8,0
			c10.5,0.2,60.9,1.1,67.8,0c7.8-1.3,5.8-10.5,5.8-10.5S581.3,367.1,577.5,344.8z"/>
		<rect x="488.2" y="228.8" class="st11" width="33.9" height="19.9"/>
		<path class="st12" d="M521.1,232.2l-32.5,0c-1.9,0-3.4-1.5-3.4-3.4l0,0c0-1.9,1.5-3.4,3.4-3.4l32.5,0c1.9,0,3.4,1.5,3.4,3.4l0,0
			C524.5,230.7,523,232.2,521.1,232.2z"/>
		<path class="st11" d="M592.4,355.2l-175.3,0c-5.3,0-9.6-4.3-9.6-9.6l0-4.7c0-5.3,4.3-9.6,9.6-9.6l175.3,0c5.3,0,9.6,4.3,9.6,9.6
			l0,4.7C602,350.9,597.7,355.2,592.4,355.2z"/>
		<path class="st11" d="M593.1,392.7l-175.3,0c-5.3,0-9.6-4.3-9.6-9.6v-4.7c0-5.3,4.3-9.6,9.6-9.6l175.3,0c5.3,0,9.6,4.3,9.6,9.6
			l0,4.7C602.7,388.4,598.4,392.7,593.1,392.7z"/>
		<path class="st11" d="M593.1,557.4l-175.3,0c-5.3,0-9.6-4.3-9.6-9.6v-4.7c0-5.3,4.3-9.6,9.6-9.6l175.3,0c5.3,0,9.6,4.3,9.6,9.6
			l0,4.7C602.7,553.1,598.4,557.4,593.1,557.4z"/>
		<path class="st11" d="M407.6,564.5l0,26.5c0,0-3.9,21.3,27.1,21.3c31,0,147.3,0,147.3,0s20,0.6,20-23.9l0-23.9L407.6,564.5z"/>
		<ellipse class="st13" cx="507.1" cy="602.6" rx="64.6" ry="5.2"/>
		<rect x="448.9" y="408.2" class="st14" width="107.9" height="107.9"/>
		<path class="st14" d="M521.6,250l-32.9,0c-0.9,0-1.6-0.7-1.6-1.6l0,0c0-0.9,0.7-1.6,1.6-1.6l32.9,0c0.9,0,1.6,0.7,1.6,1.6l0,0
			C523.2,249.2,522.5,250,521.6,250z"/>
		<path class="st14" d="M597.5,333.9l-184.7,0c-0.7,0-1.3-0.6-1.3-1.3l0,0c0-0.7,0.6-1.3,1.3-1.3l184.7,0c0.7,0,1.3,0.6,1.3,1.3l0,0
			C598.8,333.4,598.2,333.9,597.5,333.9z"/>
		<path class="st14" d="M597.5,370.1l-184.7,0c-0.7,0-1.3-0.6-1.3-1.3l0,0c0-0.7,0.6-1.3,1.3-1.3l184.7,0c0.7,0,1.3,0.6,1.3,1.3v0
			C598.8,369.5,598.2,370.1,597.5,370.1z"/>
		<path class="st14" d="M597.5,534.2l-184.7,0c-0.7,0-1.3-0.6-1.3-1.3v0c0-0.7,0.6-1.3,1.3-1.3l184.7,0c0.7,0,1.3,0.6,1.3,1.3l0,0
			C598.8,533.6,598.2,534.2,597.5,534.2z"/>
		<path class="st14" d="M601.1,565.8l-193.2,0c-0.9,0-1.6-0.7-1.6-1.6v-1.3c0-0.9,0.7-1.6,1.6-1.6l193.2,0c0.9,0,1.6,0.7,1.6,1.6
			v1.3C602.7,565.1,601.9,565.8,601.1,565.8z"/>
	</g>
	<g>
		<path class="st15" d="M315.8,437.3l-15.5-43.7c0,0-1.2-2.7-3.4-3.1c-2.2-0.4-12.6-2.5-8.3-9.4c4.2-6.9,10.2-3.4,10.2-3.4
			s6.2-9.9,13.2-3.8c6.9,6.1-1.5,12.2-1.5,12.2s-2.7,2.6-1,4.8c1.7,2.2,23.7,41.3,23.7,41.3L315.8,437.3z"/>
		<path class="st16" d="M334,425.3c0,0,4.3-5.5-1.2-7.6c-5.5-2.1-6.9,6.6-6.9,6.6s-4.7-5.9-8.9-1.7c-4.2,4.1-1.9,8.1-1.9,8.1
			l-2.8-3.6c-1.6-1.2-4.1-0.9-5.5,0.8c-0.7,0.8-1.2,2-1,3.7c0.6,5.1,6.5,6.3,6.5,6.3s-11,105.3,46.8,84.5
			C416.9,501.4,334,425.3,334,425.3z"/>
		<path class="st17" d="M336.8,444c0,0-15.2,1.8-3.8,30.3s14,49.6,37.1,33.9C393.2,492.5,344,439.7,336.8,444z"/>
	</g>
	<g>
		<path class="st18" d="M424.6,550.3c0,0,15.8,8.8,19.4-9.4c3.6-18.2,9-56.1-12.5-116.7c-21.5-60.6-43.6-124.5-77.4-114.8
			c-33.8,9.7,1.4,107.6,15.4,149.9C383.4,501.4,398.2,533.8,424.6,550.3z"/>
		<path class="st19" d="M358,368.2c0,0,18.4-6.1,23.5-25.3c0,0,2.4-6.5-5.4-2.1C368.3,345.2,346,371,358,368.2z"/>
		<path class="st19" d="M373.2,409.1c0,0,18.4-6.1,23.5-25.3c0,0,2.4-6.5-5.4-2.1C383.5,386,361.2,411.8,373.2,409.1z"/>
		<path class="st19" d="M387.5,458.1c0,0,22-7.1,27.4-31c0,0,2.7-8-6.6-2.8C399.1,429.4,373.2,461.1,387.5,458.1z"/>
		<path class="st19" d="M403,505.1c0,0,22.6-7,27.5-32.9c0,0,2.5-8.7-6.9-3.3C414.2,474.3,388.2,508,403,505.1z"/>
	</g>
	<g>
		<g>
			<path class="st20" d="M645.2,383.6c-0.2,0.6-8.1,18.1-13.9,25.8c0,0-12.8,9.6,0.8,3.3C645.7,406.2,647.4,377.1,645.2,383.6z"/>
			<path class="st21" d="M649.3,370.2c0,0-18.6,10.5-15.3,40.9C634.1,411,639.6,383.3,649.3,370.2z"/>
			<path class="st22" d="M629.4,414.6c0,0,0.9-9-0.2-15.2c-1.1-6.3,4.6-17.7,4.6-17.7S640.4,397.5,629.4,414.6z"/>
		</g>
		<path class="st23" d="M631.4,406.2c0,0-21.6-1.9-22.1,14.3c-0.5,16.2-3.3,90.4,2,89.2c5.4-1.1,37-63.1,39.1-88.5
			C650.5,421.3,651.3,404.7,631.4,406.2z"/>
	</g>
	<g>
		<g>
			<g>
				
					<rect x="499.5" y="416.1" transform="matrix(0.9487 -0.3162 0.3162 0.9487 -109.7403 180.3677)" class="st24" width="2.7" height="24.3"/>
			</g>
			<path class="st25" d="M505.2,437.1c0,0-32.4-7.7-33.5,16.5c-1.1,24.2,15.4,47.2,46.2,44c30.8-3.3,38.5-62.6,12.1-68.7
				C530,428.8,510.2,422.3,505.2,437.1z"/>
			<path class="st26" d="M505.2,437.1c0,0,0-12.1-15.9-13.2C489.3,423.9,489.3,433.2,505.2,437.1z"/>
		</g>
		<g>
			<g>
				
					<rect x="577" y="444.3" transform="matrix(0.6974 -0.7167 0.7167 0.6974 -141.1059 557.1503)" class="st24" width="24.3" height="2.7"/>
			</g>
			<path class="st27" d="M583.4,453.6c0,0-8.1-32.3-30-22.2c-22,10.1-34.9,35.4-17.8,61.2c17.1,25.8,73.3,5.4,66.6-20.8
				C602.1,471.8,598.9,451.2,583.4,453.6z"/>
			<path class="st26" d="M583.4,453.6c0,0,10.7-5.6,4.4-20.2C587.8,433.4,579.5,437.7,583.4,453.6z"/>
		</g>
		<g>
			<g>
				
					<rect x="614.8" y="450.3" transform="matrix(0.7167 -0.6974 0.6974 0.7167 -147.926 560.7426)" class="st24" width="2.7" height="24.3"/>
			</g>
			<path class="st25" d="M621.9,470.4c0,0,8.1-32.3,30-22.2c22,10.1,34.9,35.4,17.8,61.2c-17.1,25.8-73.3,5.4-66.6-20.8
				C603.3,488.5,606.5,467.9,621.9,470.4z"/>
			<path class="st26" d="M621.9,470.4c0,0-10.7-5.6-4.4-20.2C617.6,450.2,625.9,454.5,621.9,470.4z"/>
		</g>
	</g>
	<g>
		<polygon class="st21" points="597.1,552.9 597.1,804.3 312.1,804.3 312.1,482.6 597.1,482.6 		"/>
		<g>
			<polygon class="st22" points="786.1,552.5 786.1,803.9 501.2,803.9 501.1,482.2 786.1,482.2 			"/>
			<g>
				<polygon class="st28" points="792.7,481.8 842.1,559.2 540.7,559.2 501.5,481.8 				"/>
				<polygon class="st28" points="501.5,481.8 465.4,559.2 267.8,555.3 312.8,481.8 				"/>
			</g>
		</g>
	</g>
	<path class="st29" d="M903.2,739.9c-8.9-2-18.6-5.2-13.1-9.4c0,0,2.2-1.7,9.4,1.1c0,0-9.9-6.6-6.1-8.8c3.9-2.2,13.2,8.3,13.2,8.3
		s-8.3-13.8-3.3-14.9c5-1.1,8.8,13.2,8.8,13.2s0-12.7,5-13.2c0,0,4.4-1.1,1.7,12.7c0,0,7.7-11.6,9.9-8.3c2.2,3.3-6.1,13.8-6.1,13.8
		s12.1-7.2,13.2-3.9c0.8,2.3-0.3,4.5-7.1,7.3C920.6,741.1,911.7,741.8,903.2,739.9z"/>
	<path class="st4" d="M449.1,895.5c-8.9-2-18.6-5.2-13.1-9.4c0,0,2.2-1.7,9.4,1.1c0,0-9.9-6.6-6.1-8.8c3.9-2.2,13.2,8.3,13.2,8.3
		s-8.3-13.8-3.3-14.9s8.8,13.2,8.8,13.2s0-12.7,5-13.2c0,0,4.4-1.1,1.7,12.7c0,0,7.7-11.6,9.9-8.3c2.2,3.3-6.1,13.8-6.1,13.8
		s12.1-7.2,13.2-3.9c0.8,2.3-0.3,4.5-7.1,7.3C466.4,896.8,457.5,897.4,449.1,895.5z"/>
	<g>
		<path class="st30" d="M248.7,781.4c0,0-2.6,1.3-2.2,3c0,0,2.5,7.6,4.5,10.3c2,2.7,7.6,9.5,22.9,11.8c0,0,11.6,0.6,18.5-6
			c6.9-6.6,10.8-12.3,10.7-20.6c0,0-0.7-4.8-2.5-7.7c0,0-1.2-3.8-0.2-6.2c1-2.4,1-4.8,0.7-5.6l-2.6-1.2c0,0-1.8-0.5-1.7,1.6
			c0,2.1,0.5,2.4,0.1,4.2c-0.5,1.7-0.5,4.4-0.5,4.4s0.1,1-1.1,2c-1.2,1-4.1,5.8-4.1,5.8s-9,15.4-25.3,10.7
			C265.8,788,252.1,780.9,248.7,781.4z"/>
		<g>
			<path class="st31" d="M274.9,799.9c-3.2,0-6.5-0.5-9.7-1.4c-8.4-2.4-15.1-7.8-18.9-15.2l0.8-0.4c3.7,7.1,10.2,12.3,18.4,14.7
				c7.6,2.2,15.8,1.7,20.9-1.3c10.3-6,12.3-26.1,12.3-26.3l0.9,0.1c0,0.1-0.5,5.2-2.3,11.1c-1.7,5.5-4.9,12.7-10.5,15.9
				C283.7,799,279.5,799.9,274.9,799.9z"/>
		</g>
	</g>
	<g>
		<path class="st30" d="M383.9,844.5c0,0,1.6,2.8,0.4,3.8c0,0-5.9,3.7-8.9,4.3c-3,0.5-11.2,1.5-25.4-7.8c0,0-10.3-7.8-12.9-17.5
			c-2.7-9.7-3.2-16.6,0.9-22.5c0,0,3-2.9,5.9-3.8c0,0,2.9-1.9,3.2-4.3s1.5-4.2,2.2-4.6l2.8,0.9c0,0,1.8,0.9,0.7,2.4
			c-1.1,1.5-1.6,1.4-2.1,3c-0.5,1.6-1.8,3.5-1.8,3.5s-0.6,0.7,0,2.3c0.5,1.6,0.7,7.1,0.7,7.1s0.1,17.6,16.4,25.8
			C366,837.1,381.2,841.8,383.9,844.5z"/>
		<g>
			<path class="st31" d="M380.3,849.4c-5.8,0-13.2-2.7-20.6-7.6c-8.3-5.5-15-12.7-17.6-18.8c-2.8-6.6-2.2-12.1-1.1-15.7
				c1.1-3.8,2.9-6.1,3-6.2l0.7,0.6c-0.1,0.1-6.9,8.9-1.7,20.9c5.4,12.5,27.6,28.1,40.5,25.6l0.2,0.9
				C382.5,849.3,381.5,849.4,380.3,849.4z"/>
		</g>
	</g>
	<g>
		<path class="st30" d="M346.4,855.5c0,0,0,2.7-1.3,2.9c0,0-5.9,0.2-8.3-0.7c-2.5-0.9-8.8-3.7-15.3-16.5c0,0-4.2-10.1-2-18.4
			c2.2-8.3,4.7-13.5,10.3-16.1c0,0,3.4-2.7,6-2c0,0,2.9-1.9,4.2-3.6c1.2-1.6,2.9-2.4,3.6-2.4l1.6,1c0,0,0.9,2.3-0.5,3
			c-1.4,0.7-2.7,3.9-3.7,4.9s-1.9,1.8-1.9,1.8s-0.7,0.3-1,1.7c-0.3,1.4-2.6,5.5-2.6,5.5s-7.4,12.9,1.1,25.9
			C336.5,842.4,345.6,852.3,346.4,855.5z"/>
		<g>
			<path class="st31" d="M345.1,858.7c-0.1,0-5.5-3.5-10.9-8.8c-5-4.9-10.9-12.4-10.9-20.4c0-15.2,12.5-24.3,12.7-24.4l0.5,0.7
				c-0.1,0.1-12.3,9-12.3,23.7c0,14.7,21.1,28.3,21.3,28.4L345.1,858.7z"/>
		</g>
	</g>
	<path class="st30" d="M771.1,840c-0.1-0.3-0.3-0.7-0.5-1c-2.3-3-13.6-16-32.6-7.7c0,0-0.9,0.5-2.7,0.6c-1.8,0.2-2.8-0.2-3.3,1
		c-0.5,1.2,0,1.7,1.4,2.5c1.3,0.8,2.7,2.6,2.8,3.6c0.1,1.1,7,10.4,18.7,10.3c9.5-0.1,12.4-2.2,13.1-2.9c0.3-0.3,0.6-0.6,0.9-0.8
		c0.7-0.4,1.7-0.8,2.6-0.5c1.4,0.4,2.6-1.2,2.2-2.3C773.4,842,771.7,841.2,771.1,840z"/>
	<path class="st30" d="M824.1,805.3c-0.3-0.1-0.7-0.3-1-0.3c-3.6-0.6-20.2-2.1-27.8,16.5c0,0-0.3,1-1.5,2.3
		c-1.1,1.3-2.1,1.8-1.6,2.9c0.5,1.1,1.1,1.1,2.6,0.8c1.5-0.3,3.6,0,4.4,0.6c0.8,0.6,11.8,2.6,20-5.4c6.6-6.5,7.2-9.8,7.2-10.8
		c0-0.4,0-0.8,0.1-1.2c0.2-0.7,0.6-1.7,1.4-2.1c1.3-0.6,1-2.6,0-3.1C826.9,805.2,825.3,805.8,824.1,805.3z"/>
	<path class="st21" d="M797.4,807.9c0,4.8-24.3,8.8-54.3,8.8c-30,0-54.3-3.9-54.3-8.8c0-4.8,24.3-8.8,54.3-8.8
		C773.1,799.1,797.4,803,797.4,807.9z"/>
	<g>
		<g>
			<path class="st32" d="M718.8,745.7c0-0.4-0.9-8.8,0.1-19.4c1.4-14.4,5.5-25.3,12.1-32.3c6-6.4,14-9.4,23.7-9c0,0,0,0,0,0
				c1.3,0,28.1,0.8,32.9,60.4l-3.2,0.3c-4.6-56.9-29.5-57.5-29.8-57.5c0,0,0,0,0,0c-8.9-0.4-16,2.3-21.3,8
				c-14.7,15.6-11.4,48.9-11.4,49.2L718.8,745.7z"/>
		</g>
		<path class="st33" d="M667.3,735.7c0,0,18.9,80.3,85,73.9c66-6.4,78.7-73.1,78.7-73.1L667.3,735.7z"/>
		<g>
			<polygon class="st18" points="809.2,781.6 687.7,781.6 687.7,735.9 690,735.9 690,779.2 809.2,779.2 			"/>
		</g>
		<g>
			<rect x="707.3" y="736" class="st18" width="2.4" height="63.2"/>
		</g>
		<g>
			<rect x="730" y="736" class="st18" width="2.4" height="72.9"/>
		</g>
		<g>
			<rect x="751.9" y="736.2" class="st18" width="2.4" height="73.6"/>
		</g>
		<g>
			<rect x="771.9" y="736.3" class="st18" width="2.4" height="68.2"/>
		</g>
		<g>
			<rect x="793" y="736.4" class="st18" width="2.4" height="59"/>
		</g>
		<g>
			<rect x="813.8" y="736.4" class="st18" width="2.4" height="36"/>
		</g>
		<g>
			<rect x="672.5" y="750.1" class="st18" width="153.9" height="2.4"/>
		</g>
		<g>
			<rect x="678.5" y="763" class="st18" width="141.5" height="2.4"/>
		</g>
		<g>
			<rect x="701.4" y="792.6" class="st18" width="93.8" height="2.4"/>
		</g>
	</g>
</g>
</svg>
