<?xml version="1.0" encoding="utf-8"?>
<svg id="master-artboard" viewBox="0 0 841.9 595.3" version="1.1" xmlns="http://www.w3.org/2000/svg" x="0px" y="0px" width="841.9000244140625px" height="595.2999877929688px" enable-background="new 0 0 841.9 595.3">
<path d="M 0 0 H 841.900024 V 595.299988 H 0 V 0 Z" fill="#FEF8E2" transform="matrix(1, 0, 0, 1, 0, -7.105427357601002e-15)"/><path d="M 0 501.200012 H 841.900024 V 595.300011 H 0 V 501.200012 Z" fill="#8FC73E" transform="matrix(1, 0, 0, 1, 0, -7.105427357601002e-15)"/><path fill="#389A46" d="M120.3,535.8L120.3,535.8c0,8.1,6.6,14.6,14.6,14.6h637.1c8.1,0,14.6-6.6,14.6-14.6l0,0&#10;&#9;&#9;&#9;c0-8.1-6.6-14.6-14.6-14.6H135C126.9,521.2,120.3,527.8,120.3,535.8z" transform="matrix(1, 0, 0, 1, 0, -1.4210854715202004e-14)"/><path fill="#389A46" d="M28.1,535.8L28.1,535.8c0,8.1,6.6,14.6,14.6,14.6h41.6c8.1,0,14.6-6.6,14.6-14.6l0,0&#10;&#9;&#9;&#9;c0-8.1-6.6-14.6-14.6-14.6H42.8C34.7,521.2,28.1,527.8,28.1,535.8z" transform="matrix(1, 0, 0, 1, 0, -1.4210854715202004e-14)"/><g transform="matrix(1, 0, 0, 1, 0, -1.4210854715202004e-14)">
			<g>
				<path fill="#3480C3" d="M218.9,173.8l-4.2-15.6l-14,3.8l-14,3.8l4.2,15.6c3.8,14.2,5,28.7,3.8,43.1l4.1,2.7l-6.4,13.1&#10;&#9;&#9;&#9;&#9;&#9;c-2,9.4-5.1,18.7-9.3,27.6l0,0l14.8,55.5l42.8-11.4l42.8-11.4l-14.8-55.5l0,0C244.3,227.7,226.6,202.6,218.9,173.8z"/>
				<path fill="#ABD9F4" d="M218.8,167.6l-4.6-17.1l-15.4,4.1l-15.4,4.1l4.6,17.1c4.1,15.5,5.5,31.6,4.2,47.3l4.5,2.9l15.8-3.6&#10;&#9;&#9;&#9;&#9;&#9;l-3.2,16.6l11.8-6l2.1,7.8l14.3,8.2l-13.5-0.5l-6.4-6.8l-8.7,7.3l-9.7-9l-9.5,0.4c-2.2,10.4-5.6,20.5-10.2,30.3l0,0l16.3,61&#10;&#9;&#9;&#9;&#9;&#9;l47-12.6l47-12.6l-16.3-61v0C246.6,226.9,227.2,199.2,218.8,167.6z"/>
				<path fill="#6ABDEA" d="M218.8,167.6l-4.6-17.1l-15.1,4l4.6,17.1c8.4,31.6,25.1,60,47,80.1v0l16.3,61l22.8-6.1l-16.3-61v0&#10;&#9;&#9;&#9;&#9;&#9;C246.6,226.9,227.2,199.2,218.8,167.6z"/>
				<path fill="#ABD9F4" d="M300.7,380.3l-15.2-57.1l4.2-16.6l-47,12.6l-47,12.6l11.9,12.3l15.2,57.1l-5.9,10.3l2.4,8.9&#10;&#9;&#9;&#9;&#9;&#9;c0.8,3,3.9,4.9,7,4l41.5-11.1l41.5-11.1c3-0.8,4.9-3.9,4-7l-2.4-8.9L300.7,380.3z"/>
				<path d="M 195.6999969482422 331.70001220703125 L 207.60000610351562 344 L 285.5 323.20001220703125 L 289.70001220703125 306.6000061035156 Z" fill="#6ABDEA"/>
				<path d="M 300.70001220703125 380.29998779296875 L 222.89999389648438 401.1000061035156 L 216.89999389648438 411.29998779296875 L 311 386.20001220703125 Z" fill="#CCE6F8"/>
				<path fill="#6ABDEA" d="M300.7,380.3l-15.2-57.1l4.2-16.6l-22.6,6l-2.3,16.1l15.2,57.1l8.3,6.5l3.8,14.4l17.1-4.6&#10;&#9;&#9;&#9;&#9;&#9;c3-0.8,4.9-3.9,4-7l-2.4-8.9L300.7,380.3z"/>
				
					<path d="M 203 240 H 266.099998 V 337.300003 H 203 V 240 Z" transform="matrix(-0.2579 -0.9662 0.9662 -0.2579 16.2048 589.7165)" fill="#ED1C24"/>
				
					<path d="M 239 267.600006 H 302.099998 V 290.400005 H 239 V 267.600006 Z" transform="matrix(-0.2579 -0.9662 0.9662 -0.2579 70.7642 612.4025)" fill="#C4161C"/>
				
					<path d="M 172.5 291.100006 H 235.599998 V 302.500006 H 172.5 V 291.100006 Z" transform="matrix(-0.2579 -0.9662 0.9662 -0.2579 -30.0029 570.5032)" fill="#F15A31"/>
				<path fill="#ABD9F4" d="M173.8,161.3L173.8,161.3c1.1,4.1,5.2,6.5,9.3,5.4l35.3-9.4c4.1-1.1,6.5-5.2,5.4-9.3l0,0&#10;&#9;&#9;&#9;&#9;&#9;c-1.1-4.1-5.2-6.5-9.3-5.4l-35.3,9.4C175.1,153,172.7,157.2,173.8,161.3z"/>
				<path fill="#6ABDEA" d="M214.4,142.5l-11,2.9c4.1-1.1,8.2,1.3,9.3,5.4c1.1,4.1-1.3,8.2-5.4,9.3l11-2.9c4.1-1.1,6.5-5.2,5.4-9.3&#10;&#9;&#9;&#9;&#9;&#9;C222.7,143.9,218.5,141.5,214.4,142.5z"/>
			</g>
			<g>
				<path fill="#216834" d="M276.2,372.1c-4.7,0.4-8.8-3.2-9.2-7.9L257.4,241c-1.3-16.1,6.9-31.7,20.9-39.8&#10;&#9;&#9;&#9;&#9;&#9;c12.3-7.2,19.6-21,18.5-35.2l-2.4-31.2l3.3-0.3l2.4,31.2c1.1,14.2,10.4,26.8,23.7,31.9c15,5.8,25.6,20,26.8,36.1l9.6,123.1&#10;&#9;&#9;&#9;&#9;&#9;c0.4,4.7-3.2,8.8-7.9,9.2L276.2,372.1z"/>
				<path fill="#6CBC45" d="M328.7,184.9L328.7,184.9c-8.5-3.3-14.3-11.2-15-20.3l-3.5-44.8l-15.3,1.2l-15.3,1.2l3.5,44.8&#10;&#9;&#9;&#9;&#9;&#9;c0.7,9.1-3.8,17.8-11.7,22.3l0,0c-0.7,0.4-1.4,0.8-2.1,1.3l-3.4,18.1l26.4,5.8l-8.7,14.9l4.8,12.9l-4.1,15.6l17.9,13.7&#10;&#9;&#9;&#9;&#9;&#9;l-21.8-5.9l-1.8-22.6l-13.7-16.4l4.9-8.2l-13.3-4.3l-4.4-6.1c-6.2,10-9.3,21.8-8.3,34l9.6,123.1c1,12.3,11.7,21.4,23.9,20.4&#10;&#9;&#9;&#9;&#9;&#9;l76.2-6c12.3-1,21.4-11.7,20.4-23.9l-9.6-123.1C362.6,211.2,348.8,192.7,328.7,184.9z"/>
				
					<path d="M 313 347.100006 H 318.1 V 423.500008 H 313 V 347.100006 Z" transform="matrix(-7.805974e-002 -0.9969 0.9969 -7.805974e-002 -43.9019 729.9696)" fill="#389A46"/>
				<path fill="#389A46" d="M328.7,184.9L328.7,184.9c-8.5-3.3-14.3-11.2-15-20.3l-3.5-44.8l-7.4,0.6l3.5,44.8&#10;&#9;&#9;&#9;&#9;&#9;c0.7,9.1,4,17.1,8.6,20.8h0c10.7,8.5,18.6,27.6,20.2,49l9.6,123.1c1,12.3-3.4,22.6-9.7,23.1l18.4-1.4&#10;&#9;&#9;&#9;&#9;&#9;c12.3-1,21.4-11.7,20.4-23.9l-9.6-123.1C362.6,211.2,348.8,192.7,328.7,184.9z"/>
				<path fill="#6CBC45" d="M269.1,123L269.1,123c0.3,4.2,4,7.3,8.2,7l36.4-2.8c4.2-0.3,7.3-4,7-8.2l0,0c-0.3-4.2-4-7.3-8.2-7&#10;&#9;&#9;&#9;&#9;&#9;l-36.4,2.8C271.9,115.2,268.8,118.9,269.1,123z"/>
				<path fill="#389A46" d="M312.5,112l-11.4,0.9c4.2-0.3,7.8,2.8,8.2,7c0.3,4.2-2.8,7.8-7,8.2l11.4-0.9c4.2-0.3,7.3-4,7-8.2&#10;&#9;&#9;&#9;&#9;&#9;C320.3,114.8,316.7,111.7,312.5,112z"/>
			</g>
			<g>
				<path fill="#3480C3" d="M302.3,431.5c-2-0.5-3.7-1.8-4.7-3.5c-1.1-1.8-1.4-3.9-0.9-5.9l5-19.5c0.5-2,1.8-3.7,3.6-4.8&#10;&#9;&#9;&#9;&#9;&#9;c3.9-2.3,6.6-5.9,7.7-10.3l0.2-0.9c1.1-4.3,0.5-8.9-1.8-12.7c-1.1-1.8-1.4-3.9-0.8-5.9l5-19.5c0.5-2,1.8-3.7,3.6-4.8&#10;&#9;&#9;&#9;&#9;&#9;c3.9-2.3,6.6-5.9,7.7-10.3l0.8-2.9c1.1-4.4,0.5-8.9-1.8-12.7c-1.1-1.8-1.4-3.9-0.9-5.9l5-19.5c0.5-2,1.8-3.7,3.6-4.8&#10;&#9;&#9;&#9;&#9;&#9;c3.9-2.3,6.6-5.9,7.7-10.3c1.1-4.4,0.5-8.9-1.8-12.7c-1.1-1.8-1.4-3.9-0.8-5.9l5.3-20.7c0.7-2.6,2.6-4.7,5.2-5.5l29.6-9.3&#10;&#9;&#9;&#9;&#9;&#9;c5.6-1.8,9.8-6.2,11.2-11.9l5.7-22.3l24.9,6.4l-5.7,22.3c-1.5,5.7,0.1,11.6,4.2,15.8l21.5,22.4c1.9,2,2.6,4.7,1.9,7.4l-5.3,20.7&#10;&#9;&#9;&#9;&#9;&#9;c-0.5,2-1.8,3.7-3.6,4.8c-3.9,2.3-6.6,5.9-7.7,10.3s-0.5,8.9,1.8,12.7c1.1,1.8,1.4,3.9,0.9,5.9l-5,19.5c-0.5,2-1.8,3.7-3.6,4.8&#10;&#9;&#9;&#9;&#9;&#9;c-3.9,2.3-6.6,5.9-7.7,10.3l-0.8,2.9c-1.1,4.4-0.5,8.9,1.8,12.7c1.1,1.8,1.4,3.9,0.9,5.9l-5,19.5c-0.5,2-1.8,3.7-3.6,4.8&#10;&#9;&#9;&#9;&#9;&#9;c-3.9,2.3-6.6,5.9-7.7,10.3l-0.2,0.9c-1.1,4.4-0.5,8.9,1.8,12.7c1.1,1.8,1.4,3.9,0.9,5.9l-5,19.5c-0.5,2-1.8,3.7-3.6,4.8&#10;&#9;&#9;&#9;&#9;&#9;c-1.8,1-3.8,1.3-5.8,0.8L302.3,431.5z"/>
				<path fill="#ABD9F4" d="M441.6,284.7l5.3-20.7c1.1-4.2-0.1-8.6-3.1-11.7l-21.5-22.4c-2.9-3.1-4.1-7.4-3-11.5l6.8-26.8l-33.7-8.6&#10;&#9;&#9;&#9;&#9;&#9;l-6.8,26.8c-1.1,4.1-4.2,7.4-8.2,8.7l-8.1,2.5l-2.9,5.3l12.9,9.2l-8.4,9.6l15.3,11.6l-23.8-6.1l2-12.4l-6.7,3l-1.1-7.3l-9.7-5.8&#10;&#9;&#9;&#9;&#9;&#9;c-3.8,1.4-6.7,4.6-7.7,8.5l-5.3,20.7c-0.8,3.2-0.3,6.6,1.3,9.4c1.7,2.8,2.1,6.1,1.3,9.3c-0.8,3.1-2.8,5.8-5.6,7.5&#10;&#9;&#9;&#9;&#9;&#9;c-2.8,1.7-4.9,4.4-5.7,7.6l-2.5,9.8l-2.5,9.8c-0.8,3.2-0.3,6.6,1.3,9.4c1.7,2.8,2.1,6.1,1.3,9.3l-0.8,2.9&#10;&#9;&#9;&#9;&#9;&#9;c-0.8,3.1-2.8,5.8-5.6,7.5c-2.8,1.7-4.9,4.4-5.7,7.6l-2.5,9.8l-2.5,9.8c-0.8,3.2-0.3,6.6,1.3,9.4c1.7,2.8,2.1,6.1,1.3,9.3&#10;&#9;&#9;&#9;&#9;&#9;l-0.2,0.9c-0.8,3.1-2.8,5.8-5.6,7.5c-2.8,1.7-4.9,4.4-5.7,7.6l-2.5,9.8l-2.5,9.8c-0.8,3.2-0.3,6.6,1.3,9.4v0&#10;&#9;&#9;&#9;&#9;&#9;c1.7,2.8,4.4,4.8,7.5,5.6l83.6,21.4c3.1,0.8,6.5,0.3,9.3-1.3l0,0c2.8-1.7,4.9-4.4,5.7-7.6l2.5-9.8l2.5-9.8&#10;&#9;&#9;&#9;&#9;&#9;c0.8-3.2,0.3-6.6-1.3-9.4c-1.7-2.8-2.1-6.1-1.3-9.3l0.2-0.9c0.8-3.1,2.8-5.8,5.6-7.5c2.8-1.7,4.9-4.4,5.7-7.6l2.5-9.8l2.5-9.8&#10;&#9;&#9;&#9;&#9;&#9;c0.8-3.2,0.3-6.6-1.3-9.4c-1.7-2.8-2.1-6.1-1.3-9.3l0.8-2.9c0.8-3.1,2.8-5.8,5.6-7.5c2.8-1.7,4.9-4.4,5.7-7.6l2.5-9.8l2.5-9.8&#10;&#9;&#9;&#9;&#9;&#9;c0.8-3.2,0.3-6.6-1.3-9.4c-1.7-2.8-2.1-6.1-1.3-9.3c0.8-3.1,2.8-5.8,5.6-7.5C438.7,290.6,440.8,287.9,441.6,284.7z"/>
				<path fill="#6ABDEA" d="M441.6,284.7l5.3-20.7c1.1-4.2-0.1-8.6-3.1-11.7l-21.5-22.4c-2.9-3.1-4.1-7.4-3-11.5l6.8-26.8l-5.6-1.4&#10;&#9;&#9;&#9;&#9;&#9;l-6.8,26.8c-1.1,4.1-0.6,8.3,1.2,11.1l13.1,20.2c1.8,2.8,2.3,7,1.2,11.2l-5.3,20.7c-0.8,3.2-2.4,6-4.5,7.9&#10;&#9;&#9;&#9;&#9;&#9;c-2.1,1.8-3.7,4.6-4.5,7.8c-0.8,3.1-0.7,6.4,0.2,9c0.9,2.6,1,5.9,0.2,9.1l-2.5,9.8l-2.5,9.8c-0.8,3.2-2.4,6-4.5,7.9&#10;&#9;&#9;&#9;&#9;&#9;c-2.1,1.8-3.7,4.6-4.5,7.8l-0.8,2.9c-0.8,3.1-0.7,6.4,0.2,9c0.9,2.6,1,5.9,0.2,9.1l-2.5,9.8l-2.5,9.8c-0.8,3.2-2.4,6-4.5,7.9&#10;&#9;&#9;&#9;&#9;&#9;c-2.1,1.8-3.7,4.6-4.5,7.8l-0.2,0.9c-0.8,3.1-0.7,6.4,0.2,9c0.9,2.6,1,5.9,0.2,9.1l-2.5,9.8l-2.5,9.8c-0.8,3.2-2.4,6-4.5,7.9v0&#10;&#9;&#9;&#9;&#9;&#9;c-2.1,1.8-4.4,2.6-6.5,2l13.8,3.5c3.1,0.8,6.5,0.3,9.3-1.3l0,0c2.8-1.7,4.9-4.4,5.7-7.6l2.5-9.8l2.5-9.8&#10;&#9;&#9;&#9;&#9;&#9;c0.8-3.2,0.3-6.6-1.3-9.4c-1.7-2.8-2.1-6.1-1.3-9.3l0.2-0.9c0.8-3.1,2.8-5.8,5.6-7.5c2.8-1.7,4.9-4.4,5.7-7.6l2.5-9.8l2.5-9.8&#10;&#9;&#9;&#9;&#9;&#9;c0.8-3.2,0.3-6.6-1.3-9.4c-1.7-2.8-2.1-6.1-1.3-9.3l0.8-2.9c0.8-3.1,2.8-5.8,5.6-7.5c2.8-1.7,4.9-4.4,5.7-7.6l2.5-9.8l2.5-9.8&#10;&#9;&#9;&#9;&#9;&#9;c0.8-3.2,0.3-6.6-1.3-9.4c-1.7-2.8-2.1-6.1-1.3-9.3c0.8-3.1,2.8-5.8,5.6-7.5C438.7,290.6,440.8,287.9,441.6,284.7z"/>
				<path fill="#ABD9F4" d="M384.3,180.9L384.3,180.9c-1,4.1,1.4,8.2,5.5,9.3l35.4,9c4.1,1,8.2-1.4,9.3-5.5l0,0&#10;&#9;&#9;&#9;&#9;&#9;c1-4.1-1.4-8.2-5.5-9.3l-35.4-9C389.4,174.4,385.3,176.9,384.3,180.9z"/>
				<path fill="#6ABDEA" d="M428.9,184.5l-11-2.8c4.1,1,6.5,5.2,5.5,9.3c-1,4.1-5.2,6.5-9.3,5.5l11,2.8c4.1,1,8.2-1.4,9.3-5.5&#10;&#9;&#9;&#9;&#9;&#9;C435.4,189.7,432.9,185.6,428.9,184.5z"/>
				<path fill="#6ABDEA" d="M335.6,266.6c1.7,2.8,2.1,6.1,1.3,9.3c-0.8,3.1-2.8,5.8-5.6,7.5l100.3,25.7c-1.7-2.8-2.1-6.1-1.3-9.3&#10;&#9;&#9;&#9;&#9;&#9;c0.8-3.1,2.8-5.8,5.6-7.5L335.6,266.6z"/>
				<path fill="#6ABDEA" d="M322,319.6c1.6,3.2,1.9,7.1,0.9,10.8c-1,3.7-3.1,7-6,9l100.3,25.7c-1.6-3.2-1.9-7.1-0.9-10.8&#10;&#9;&#9;&#9;&#9;&#9;c1-3.7,3.1-7,6-9L322,319.6z"/>
				<path fill="#6ABDEA" d="M307.5,376.3c1.6,2.9,2.1,6.3,1.2,9.6c-0.8,3.3-2.9,6.1-5.7,7.8l100.3,25.7c-1.6-2.9-2.1-6.3-1.2-9.6&#10;&#9;&#9;&#9;&#9;&#9;c0.8-3.3,2.9-6.1,5.7-7.8L307.5,376.3z"/>
			</g>
			<g>
				
					<path d="M 465.899994 121.800003 H 490.499994 V 179.200005 H 465.899994 V 121.800003 Z" transform="matrix(0.1302 -0.9915 0.9915 0.1302 266.693 605.0538)" fill="#F99D24"/>
				<g>
					<g>
						<path fill="#FEBD3B" d="M507.8,148.8l-57.7-7.6c-0.6-0.1-1.1-0.7-1-1.3l0,0c0.1-0.6,0.7-1.1,1.3-1l57.7,7.6&#10;&#9;&#9;&#9;&#9;&#9;&#9;&#9;c0.6,0.1,1.1,0.7,1,1.3l0,0C509,148.4,508.4,148.8,507.8,148.8z"/>
					</g>
					<g>
						<path fill="#FEBD3B" d="M506.8,155.9l-57.7-7.6c-0.6-0.1-1.1-0.7-1-1.3l0,0c0.1-0.6,0.7-1.1,1.3-1l57.7,7.6&#10;&#9;&#9;&#9;&#9;&#9;&#9;&#9;c0.6,0.1,1.1,0.7,1,1.3l0,0C508,155.6,507.5,156,506.8,155.9z"/>
					</g>
				</g>
				<path fill="#F36D21" d="M435,177.5l-24.7,188.2c-1.1,8.6,4.9,16.5,13.5,17.6l115,15.1c8.6,1.1,16.5-4.9,17.6-13.5l20.7-157.5&#10;&#9;&#9;&#9;&#9;&#9;c0.8-5.9-1.8-11.7-6.8-15.1l-57.2-38.8c-2-1.4-4.3-2.3-6.8-2.6l-53.8-7.1C444,162.9,436.1,168.9,435,177.5z"/>
				<path fill="#FEBD3B" d="M577,206.4l-62.2-42.2c-2.2-1.5-4.7-2.5-7.4-2.8l-58.5-7.7c-9.4-1.2-18,5.4-19.2,14.7l-4.3,32.8&#10;&#9;&#9;&#9;&#9;&#9;l10.2-1.7l3.7,15.8l7.2,0.9l8.5,11.1l-6.4,4.7l4.7,8.5l9,1.2l6.3,16.5l-10.1-10.5l-12.1,1.5l-7.4-19.2l1.1-8.6l-11.7-1.5l0-6&#10;&#9;&#9;&#9;&#9;&#9;l-4.8,1.6l-20.7,157.8c-1.2,9.4,5.4,18,14.7,19.2l125.1,16.4c9.4,1.2,18-5.4,19.2-14.7l22.5-171.4&#10;&#9;&#9;&#9;&#9;&#9;C585.2,216.3,582.3,210,577,206.4z"/>
				<path fill="#F99D24" d="M577,206.4l-19.6-13.3c0.1,1.2,0,2.4-0.1,3.5l-25.2,191.6c-1.4,10.5-11,17.8-21.4,16.5l31.9,4.2&#10;&#9;&#9;&#9;&#9;&#9;c9.4,1.2,18-5.4,19.2-14.7l22.5-171.4C585.2,216.3,582.3,210,577,206.4z"/>
				<g>
					<path d="M 446.3999938964844 216.1999969482422 L 454.8999938964844 227.3000030517578 L 448.5 232.10000610351562 L 453.20001220703125 240.60000610351562 L 453.5 240.60000610351562 L 464.70001220703125 155.8000030517578 L 448.8999938964844 153.6999969482422 L 440.70001220703125 215.5 Z" fill="#FED24C"/>
					<path d="M 446.29998779296875 249.1999969482422 L 438.79998779296875 229.89999389648438 L 417.5 392.3999938964844 L 433.29998779296875 394.5 L 452.5 248.39999389648438 Z" fill="#FED24C"/>
				</g>
				<path fill="#FEF8E2" d="M540.8,228.6l-74.9-9.8c-5.3-0.7-10.3,1.4-13.6,5.1l2.7,3.5l-6.4,4.7l4.7,8.5l9,1.2l6.3,16.5l-10.1-10.5&#10;&#9;&#9;&#9;&#9;&#9;l-12.1,1.5l-12.1,92.2c-1.1,8.5,4.8,16.2,13.3,17.3l74.9,9.8c8.5,1.1,16.2-4.8,17.3-13.3l14.4-109.3&#10;&#9;&#9;&#9;&#9;&#9;C555.2,237.5,549.2,229.7,540.8,228.6z"/>
			</g>
			<g>
				<path fill="#3480C3" d="M645.1,236l-11.6-8l24.3-61.3l-32-12.7l-24.3,61.3l-13.9-2.1c-11-1.6-21.7,4.5-25.8,14.9l-50.1,126.4&#10;&#9;&#9;&#9;&#9;&#9;c-4.9,12.3,1.1,26.3,13.5,31.2l47.4,18.8c12.3,4.9,26.3-1.1,31.2-13.5l50.1-126.4C657.8,254.2,654.2,242.3,645.1,236z"/>
				<path fill="#ABD9F4" d="M648.1,233.5l-12.3-8.5l25.7-65l-33.9-13.4l-25.7,65l-14.8-2.2c-11.7-1.7-23,4.8-27.4,15.8l-10.1,25.5&#10;&#9;&#9;&#9;&#9;&#9;l5.1,10.9l18.7,7.4l-16.2,13.2l15.7,14.4l-11.6,9.3l8.5,14.2l2.1,16.8l-10.1-16.7l-16.9-6.7l6.7-15.1l-4.8-3l0.8-8.8l-10.5-4&#10;&#9;&#9;&#9;&#9;&#9;l-30.3,76.5c-5.2,13.1,1.2,27.9,14.3,33l50.2,19.9c13.1,5.2,27.9-1.2,33-14.3l53.1-134C661.6,252.8,657.8,240.2,648.1,233.5z"/>
				<path fill="#6ABDEA" d="M648.1,233.5l-12.3-8.5l25.7-65l-17-6.7l-25.7,65l12.3,8.5c9.7,6.7,13.5,19.3,9.1,30.3l-53.1,134&#10;&#9;&#9;&#9;&#9;&#9;c-5.2,13.1-20,19.5-33,14.3l17,6.7c13.1,5.2,27.9-1.2,33-14.3l53.1-134C661.6,252.8,657.8,240.2,648.1,233.5z"/>
				
					<path d="M 596.700012 167.5 H 666.600014 V 204 H 596.700012 V 167.5 Z" transform="matrix(0.3685 -0.9296 0.9296 0.3685 226.2553 704.5502)" fill="#EF3E3E"/>
				<path d="M 650.0999755859375 155.5 L 627.5999755859375 146.5 L 622.2999877929688 159.8000030517578 L 644.9000244140625 168.8000030517578 L 624.4000244140625 220.39999389648438 L 635.7999877929688 224.89999389648438 L 656.2999877929688 173.3000030517578 L 661.5 160 Z" fill="#CF3535"/>
				<path fill="#476067" d="M619.7,143.4L619.7,143.4c-1.5,3.9,0.4,8.3,4.3,9.9l33.9,13.4c3.9,1.5,8.3-0.4,9.9-4.3l0,0&#10;&#9;&#9;&#9;&#9;&#9;c1.5-3.9-0.4-8.3-4.3-9.9l-33.9-13.4C625.7,137.6,621.3,139.5,619.7,143.4z"/>
				<path fill="#384E55" d="M663.5,152.6l-10.6-4.2c3.9,1.5,5.8,6,4.3,9.9c-1.5,3.9-6,5.8-9.9,4.3l10.6,4.2c3.9,1.5,8.3-0.4,9.9-4.3&#10;&#9;&#9;&#9;&#9;&#9;C669.4,158.6,667.4,154.2,663.5,152.6z"/>
				<path d="M 549.5 250.60000610351562 L 554.5999755859375 261.6000061035156 L 573.2999877929688 269 L 557.0999755859375 282.20001220703125 L 572.7999877929688 296.6000061035156 L 561.2000122070312 305.8999938964844 L 569.7000122070312 320.1000061035156 L 571.7999877929688 336.8999938964844 L 561.5999755859375 320.20001220703125 L 544.7000122070312 313.5 L 551.4000244140625 298.3999938964844 L 546.5999755859375 295.29998779296875 L 547.4000244140625 286.5 L 536.9000244140625 282.6000061035156 L 510.8999938964844 348 L 608.5 386.70001220703125 L 653.5 273.20001220703125 L 555.9000244140625 234.5 Z" fill="#EF3E3E"/>
				
					<path d="M 559.700012 314.799988 H 681.800011 V 336.799988 H 559.700012 V 314.799988 Z" transform="matrix(0.3685 -0.9296 0.9296 0.3685 89.0812 782.8439)" fill="#CF3535"/>
				<g>
					<path fill="#FEBD3B" d="M628.4,283.7L567,259.3c-2.9-1.2-6.2,0.3-7.4,3.2l-0.3,0.9l14.1,5.6l-16.2,13.2l15.7,14.4l-11.6,9.3&#10;&#9;&#9;&#9;&#9;&#9;&#9;l8.5,14.2l38.3,15.2c2.9,1.2,6.2-0.3,7.4-3.2l16.2-41C632.8,288.1,631.3,284.8,628.4,283.7z"/>
					<path fill="#FEBD3B" d="M543.3,303.5c-1.1,2.7,0.1,5.8,2.6,7.1l5.4-12.3l-4.8-3L543.3,303.5z"/>
				</g>
				<path fill="#FEBD3B" d="M604.3,344.4l-33.3-13.2l0.7,5.7l-4.3-7.1l-24.6-9.7c-2.9-1.2-6.2,0.3-7.4,3.2l-2.7,6.8&#10;&#9;&#9;&#9;&#9;&#9;c-1.2,2.9,0.3,6.2,3.2,7.4l61.4,24.3c2.9,1.2,6.2-0.3,7.4-3.2l2.7-6.8C608.7,348.9,607.3,345.6,604.3,344.4z"/>
				<g>
					<path opacity="0.5" fill="#FFFFFF" d="M546.6,295.3l0.8-8.8l-2.3-0.9l-28.2,71.2c-1,2.5,0.2,5.4,2.8,6.4c2.5,1,5.4-0.2,6.4-2.8&#10;&#9;&#9;&#9;&#9;&#9;&#9;l24.8-62.5L546.6,295.3z"/>
					<path opacity="0.5" fill="#FFFFFF" d="M576.3,233.8c1-2.5-0.2-5.4-2.8-6.4c-2.5-1-5.4,0.2-6.4,2.8l-12.4,31.4l9.2,3.6&#10;&#9;&#9;&#9;&#9;&#9;&#9;L576.3,233.8z"/>
				</g>
			</g>
		</g><g transform="matrix(1, 0, 0, 1, 0, -2.1316282072803006e-14)">
				<path d="M 152.800003 256.700012 H 467.400009 V 534.5 H 152.800003 V 256.700012 Z" fill="#FFD597"/>
				<path d="M 152.8000030517578 394.70001220703125 L 152.8000030517578 256.70001220703125 L 467.29998779296875 256.70001220703125 L 467.29998779296875 300.5 L 433.1000061035156 394.70001220703125 Z" fill="#E5B36E"/>
				<path d="M 152.8000030517578 256.70001220703125 L 108.9000015258789 377.29998779296875 L 423.3999938964844 377.29998779296875 L 467.29998779296875 256.70001220703125 Z" fill="#FFD597"/>
				<path d="M 467.299988 256.700012 H 689.099991 V 534.5 H 467.299988 V 256.700012 Z" fill="#E5B36E"/>
				<path d="M 689.0999755859375 256.70001220703125 L 689.0999755859375 393.8999938964844 L 501.3999938964844 393.8999938964844 L 467.29998779296875 300.29998779296875 L 467.29998779296875 256.70001220703125 Z" fill="#C69C60"/>
				<path d="M 467.29998779296875 256.70001220703125 L 511.20001220703125 377.29998779296875 L 733 377.29998779296875 L 689.0999755859375 256.70001220703125 Z" fill="#E5B36E"/>
			</g><path d="M 217.800003 480.200012 H 257.600002 V 520.000011 H 217.800003 V 480.200012 Z" fill="#476067" transform="matrix(1, 0, 0, 1, 0, -2.1316282072803006e-14)"/><path d="M 166.699997 480.200012 H 206.499996 V 520.000011 H 166.699997 V 480.200012 Z" fill="#476067" transform="matrix(1, 0, 0, 1, 0, -2.1316282072803006e-14)"/><path fill="#3480C3" d="M486.2,442.5c0-2.1,0.8-4,2.3-5.4c1.5-1.5,3.5-2.3,5.5-2.3l20.1,0c2.1,0,4.1,0.8,5.5,2.3&#10;&#9;&#9;&#9;c3.2,3.2,7.4,4.9,11.9,4.9l0.9,0c4.5,0,8.7-1.7,11.9-4.9c1.5-1.5,3.5-2.3,5.5-2.3l20.1,0c2.1,0,4.1,0.8,5.5,2.3&#10;&#9;&#9;&#9;c3.2,3.2,7.4,4.9,11.9,4.9l3,0c4.5,0,8.7-1.7,11.9-4.9c1.5-1.5,3.5-2.3,5.5-2.3l20.1,0c2.1,0,4.1,0.8,5.5,2.3&#10;&#9;&#9;&#9;c3.2,3.2,7.4,4.9,11.9,4.9c4.5,0,8.7-1.7,11.9-4.9c1.5-1.5,3.5-2.3,5.5-2.3l21.4,0c2.7,0,5.2,1.4,6.7,3.7l16.3,26.4&#10;&#9;&#9;&#9;c3.1,5,8.4,8,14.3,8l23.1,0l0,25.7l-23.1,0c-5.9,0-11.2,3-14.3,7.9L691,532.8c-1.4,2.3-3.9,3.7-6.7,3.7l-21.4,0&#10;&#9;&#9;&#9;c-2.1,0-4.1-0.8-5.5-2.3c-3.2-3.2-7.4-4.9-11.9-4.9c-4.5,0-8.7,1.7-11.9,4.9c-1.5,1.5-3.5,2.3-5.5,2.3l-20.1,0&#10;&#9;&#9;&#9;c-2.1,0-4.1-0.8-5.5-2.3c-3.2-3.2-7.4-4.9-11.9-4.9l-3,0c-4.5,0-8.7,1.7-11.9,4.9c-1.5,1.5-3.5,2.3-5.5,2.3l-20.1,0&#10;&#9;&#9;&#9;c-2.1,0-4.1-0.8-5.5-2.3c-3.2-3.2-7.4-4.9-11.9-4.9l-0.9,0c-4.5,0-8.7,1.7-11.9,4.9c-1.5,1.5-3.5,2.3-5.5,2.3l-20.1,0&#10;&#9;&#9;&#9;c-2.1,0-4.1-0.8-5.5-2.3c-1.5-1.5-2.3-3.4-2.3-5.4L486.2,442.5z" transform="matrix(1, 0, 0, 1, 0, -1.4210854715202004e-14)"/><path fill="#ABD9F4" d="M662.9,541.1l21.4,0c4.3,0,8.3-2.2,10.5-5.9l16.3-26.3c2.2-3.6,6.2-5.8,10.4-5.8l27.6,0l0-34.8l-27.6,0&#10;&#9;&#9;&#9;c-4.2,0-8.2-2.2-10.4-5.8l-4.5-7.2l-5.8-1.5l-5.7,14.8l-11.4-5.7l-7.4,17.7l0-24.5L689,455l-4.6-5.7l6.8-2.8l3.3-10.8&#10;&#9;&#9;&#9;c-2.3-3.3-6.1-5.3-10.2-5.3l-21.4,0c-3.3,0-6.4,1.3-8.8,3.6c-2.3,2.3-5.4,3.6-8.7,3.6c-3.2,0-6.4-1.3-8.7-3.6&#10;&#9;&#9;&#9;c-2.3-2.3-5.5-3.6-8.8-3.6l-10.1,0l-10.1,0c-3.3,0-6.4,1.3-8.8,3.6c-2.3,2.3-5.4,3.6-8.7,3.6l-3,0c-3.2,0-6.4-1.3-8.7-3.6&#10;&#9;&#9;&#9;c-2.3-2.3-5.5-3.6-8.8-3.6l-10.1,0l-10.1,0c-3.3,0-6.4,1.3-8.8,3.6c-2.3,2.3-5.4,3.6-8.7,3.6l-0.9,0c-3.2,0-6.4-1.3-8.7-3.6&#10;&#9;&#9;&#9;c-2.3-2.3-5.5-3.6-8.8-3.6l-10.1,0l-10.1,0c-3.3,0-6.4,1.3-8.8,3.6l0,0c-2.3,2.3-3.6,5.4-3.6,8.7l0,86.2c0,3.2,1.3,6.4,3.6,8.7h0&#10;&#9;&#9;&#9;c2.3,2.3,5.5,3.6,8.8,3.6l10.1,0l10.1,0c3.3,0,6.4-1.3,8.8-3.6c2.3-2.3,5.4-3.6,8.7-3.6l0.9,0c3.2,0,6.4,1.3,8.7,3.6&#10;&#9;&#9;&#9;c2.3,2.3,5.5,3.6,8.8,3.6l10.1,0l10.1,0c3.3,0,6.4-1.3,8.8-3.6c2.3-2.3,5.4-3.6,8.7-3.6l3,0c3.2,0,6.4,1.3,8.7,3.6&#10;&#9;&#9;&#9;c2.3,2.3,5.5,3.6,8.8,3.6l10.1,0l10.1,0c3.3,0,6.4-1.3,8.8-3.6c2.3-2.3,5.4-3.6,8.7-3.6c3.2,0,6.4,1.3,8.7,3.6&#10;&#9;&#9;&#9;C656.4,539.8,659.6,541.1,662.9,541.1z" transform="matrix(1, 0, 0, 1, 0, -1.4210854715202004e-14)"/><path fill="#6ABDEA" d="M662.9,541.1l21.4,0c4.3,0,8.3-2.2,10.5-5.9l16.3-26.3c2.2-3.6,6.2-5.8,10.4-5.8l27.6,0l0-5.7l-27.6,0&#10;&#9;&#9;&#9;c-4.2,0-8.2,1.5-10.4,3.9l-16.3,17.6c-2.3,2.4-6.3,3.9-10.5,3.9l-21.4,0c-3.3,0-6.4-0.9-8.8-2.4c-2.3-1.5-5.4-2.4-8.7-2.4&#10;&#9;&#9;&#9;c-3.2,0-6.4,0.9-8.7,2.4c-2.3,1.6-5.5,2.4-8.8,2.4l-10.1,0l-10.1,0c-3.3,0-6.4-0.9-8.8-2.4c-2.3-1.5-5.4-2.4-8.7-2.4l-3,0&#10;&#9;&#9;&#9;c-3.2,0-6.4,0.9-8.7,2.4c-2.3,1.6-5.5,2.4-8.8,2.4l-10.1,0l-10.1,0c-3.3,0-6.4-0.9-8.8-2.4c-2.3-1.5-5.4-2.4-8.7-2.4l-0.9,0&#10;&#9;&#9;&#9;c-3.2,0-6.4,0.9-8.7,2.4c-2.3,1.6-5.5,2.4-8.8,2.4l-10.1,0l-10.1,0c-3.3,0-6.4-0.9-8.8-2.4h0c-2.3-1.5-3.6-3.6-3.6-5.8l0,14.2&#10;&#9;&#9;&#9;c0,3.2,1.3,6.4,3.6,8.7h0c2.3,2.3,5.5,3.6,8.8,3.6l10.1,0l10.1,0c3.3,0,6.4-1.3,8.8-3.6c2.3-2.3,5.4-3.6,8.7-3.6l0.9,0&#10;&#9;&#9;&#9;c3.2,0,6.4,1.3,8.7,3.6c2.3,2.3,5.5,3.6,8.8,3.6l10.1,0l10.1,0c3.3,0,6.4-1.3,8.8-3.6c2.3-2.3,5.4-3.6,8.7-3.6l3,0&#10;&#9;&#9;&#9;c3.2,0,6.4,1.3,8.7,3.6c2.3,2.3,5.5,3.6,8.8,3.6l10.1,0l10.1,0c3.3,0,6.4-1.3,8.8-3.6c2.3-2.3,5.4-3.6,8.7-3.6&#10;&#9;&#9;&#9;c3.2,0,6.4,1.3,8.7,3.6C656.4,539.8,659.6,541.1,662.9,541.1z" transform="matrix(1, 0, 0, 1, 0, -1.4210854715202004e-14)"/><path fill="#ABD9F4" d="M749.2,459.9L749.2,459.9c-4.2,0-7.6,3.4-7.6,7.6l0,36.5c0,4.2,3.4,7.6,7.6,7.6l0,0c4.2,0,7.6-3.4,7.6-7.6&#10;&#9;&#9;&#9;l0-36.5C756.8,463.3,753.4,459.9,749.2,459.9z" transform="matrix(1, 0, 0, 1, 0, -1.4210854715202004e-14)"/><path fill="#6ABDEA" d="M756.8,504l0-11.4c0,4.2-3.4,7.6-7.6,7.6c-4.2,0-7.6-3.4-7.6-7.6l0,11.4c0,4.2,3.4,7.6,7.6,7.6&#10;&#9;&#9;&#9;C753.4,511.6,756.8,508.2,756.8,504z" transform="matrix(1, 0, 0, 1, 0, -1.4210854715202004e-14)"/><path fill="#6ABDEA" d="M654.2,433.9c-2.3,2.3-5.4,3.6-8.7,3.6c-3.2,0-6.4-1.3-8.7-3.6l-0.1,103.6c2.3-2.3,5.4-3.6,8.7-3.6&#10;&#9;&#9;&#9;c3.2,0,6.4,1.3,8.7,3.6L654.2,433.9z" transform="matrix(1, 0, 0, 1, 0, -1.4210854715202004e-14)"/><path fill="#6ABDEA" d="M599.5,433.8c-2.7,2.3-6.4,3.6-10.2,3.6c-3.8,0-7.5-1.3-10.2-3.6l-0.1,103.6c2.7-2.3,6.4-3.6,10.2-3.6&#10;&#9;&#9;&#9;c3.8,0,7.5,1.3,10.2,3.6L599.5,433.8z" transform="matrix(1, 0, 0, 1, 0, -1.4210854715202004e-14)"/><path fill="#6ABDEA" d="M541,433.8c-2.4,2.3-5.6,3.6-9,3.6c-3.4,0-6.6-1.3-9-3.6L523,537.4c2.4-2.3,5.6-3.6,9-3.6&#10;&#9;&#9;&#9;c3.4,0,6.6,1.3,9,3.6L541,433.8z" transform="matrix(1, 0, 0, 1, 0, -1.4210854715202004e-14)"/>
</svg>