<svg height="384pt" viewBox="0 0 384 384" width="384pt" xmlns="http://www.w3.org/2000/svg"><path d="m368 112v240c0 8.800781-7.199219 16-16 16h-320c-8.800781 0-16-7.199219-16-16v-240c0-3.839844 1.359375-7.359375 3.679688-10.160156l62.242187 99.601562c8.71875 14 24.15625 22.558594 40.71875 22.558594h21.359375v16c0 8.800781 7.199219 16 16 16h64c8.800781 0 16-7.199219 16-16v-16h21.359375c16.5625 0 32-8.558594 40.71875-22.558594l62.242187-99.601562c2.320313 2.800781 3.679688 6.320312 3.679688 10.160156zm0 0" fill="#ff7043"/><path d="m352 96c4.960938 0 9.359375 2.238281 12.320312 5.839844l-62.242187 99.601562c-8.71875 14-24.15625 22.558594-40.71875 22.558594h-21.359375v-16c0-8.800781-7.199219-16-16-16h-64c-8.800781 0-16 7.199219-16 16v16h-21.359375c-16.5625 0-32-8.558594-40.71875-22.558594l-62.242187-99.601562c2.960937-3.601563 7.359374-5.839844 12.320312-5.839844zm0 0" fill="#ff8a65"/><path d="m240 224v16c0 8.800781-7.199219 16-16 16h-64c-8.800781 0-16-7.199219-16-16v-32c0-8.800781 7.199219-16 16-16h64c8.800781 0 16 7.199219 16 16zm0 0" fill="#e0f7fa"/><path d="m377.039062 92.199219c-.136718-.167969-.222656-.359375-.359374-.519531-.167969-.199219-.382813-.34375-.558594-.542969-.457032-.503907-.9375-.976563-1.464844-1.425781-5.992188-6.109376-14.023438-9.710938-22.65625-9.710938h-48v-48c0-17.648438-14.351562-32-32-32h-160c-17.648438 0-32 14.351562-32 32v48h-48c-8.632812 0-16.671875 3.601562-22.664062 9.71875-.511719.441406-.984376.90625-1.433594 1.402344-.175782.199218-.390625.34375-.558594.542968-.136719.167969-.230469.359376-.359375.527344-.265625.351563-.503906.703125-.738281 1.074219-3.980469 5.445313-6.246094 11.992187-6.246094 18.734375v240c0 17.648438 14.351562 32 32 32h320c17.648438 0 32-14.351562 32-32v-240c0-6.777344-2.273438-13.34375-6.246094-18.769531-.226562-.351563-.457031-.695313-.714844-1.03125zm-217.039062 115.800781h64v32h-64zm64-32h-64c-17.648438 0-32 14.351562-32 32h-5.359375c-10.96875 0-21.367187-5.753906-27.152344-15.039062l-50.59375-80.960938h294.203125l-50.609375 80.984375c-5.761719 9.261719-16.160156 15.015625-27.128906 15.015625h-5.359375c0-17.648438-14.351562-32-32-32zm-112-144h160v48h-160zm-80 320-.023438-200.289062 36.359376 58.183593c11.566406 18.570313 32.375 30.105469 54.304687 30.105469h5.359375c0 17.648438 14.351562 32 32 32h64c17.648438 0 32-14.351562 32-32h5.359375c21.929687 0 42.738281-11.535156 54.289063-30.078125l36.351562-58.167969v200.246094zm0 0" fill="#012e52"/></svg>