<?xml version="1.0" encoding="utf-8"?>
<!-- Generator: Adobe Illustrator 16.0.0, SVG Export Plug-In . SVG Version: 6.00 Build 0)  -->
<!DOCTYPE svg PUBLIC "-//W3C//DTD SVG 1.1//EN" "http://www.w3.org/Graphics/SVG/1.1/DTD/svg11.dtd">
<svg version="1.1" id="Layer_1" xmlns="http://www.w3.org/2000/svg" xmlns:xlink="http://www.w3.org/1999/xlink" x="0px" y="0px"
	 width="1568px" height="1400px" viewBox="0 0 1568 1400" enable-background="new 0 0 1568 1400" xml:space="preserve">
<g>
	<rect x="0" y="0" fill="#8CB5CB" width="1568" height="1094.2"/>
	<path fill="#9CC9E0" d="M1307.9,1074.4V311.9c0-69-56-125-125-125H329c-69,0-125,56-125,125v762.5H1307.9z"/>
	<path fill="#8CB5CB" d="M1027.8,715.5c0,14.5-11.8,26.3-26.3,26.3H761.1c-14.5,0-26.3-11.8-26.3-26.3l0,0
		c0-14.5,11.8-26.3,26.3-26.3h240.3C1016,689.2,1027.8,701,1027.8,715.5L1027.8,715.5z"/>
	<path fill="#8CB5CB" d="M976.4,610.2c0,13.4,10.9,24.3,24.3,24.3h111.1c13.4,0,24.3-10.9,24.3-24.3l0,0c0-13.4-10.9-24.3-24.3-24.3
		h-111.1C987.3,585.9,976.4,596.8,976.4,610.2L976.4,610.2z"/>
	<path fill="#8CB5CB" d="M1209.3,504.2c0,13.4,10.9,24.3,24.3,24.3h111.1c13.4,0,24.3-10.9,24.3-24.3l0,0
		c0-13.4-10.9-24.3-24.3-24.3h-111.1C1220.2,479.9,1209.3,490.8,1209.3,504.2L1209.3,504.2z"/>
	<path fill="#8CB5CB" d="M856.9,417.1c0,13.4,10.9,24.3,24.3,24.3h111.1c13.4,0,24.3-10.9,24.3-24.3l0,0c0-13.4-10.9-24.3-24.3-24.3
		H881.2C867.8,392.8,856.9,403.7,856.9,417.1L856.9,417.1z"/>
	<path fill="#9CC9E0" d="M266.2,914.7c0,16.5-13.4,30-29.9,30h-64.5c-16.5,0-29.9-13.4-29.9-30l0,0c0-16.5,13.4-29.9,29.9-29.9h64.5
		C252.8,884.7,266.2,898.1,266.2,914.7L266.2,914.7z"/>
	<path fill="#9CC9E0" d="M1478,555c0,16.5-13.4,30-29.9,30h-129c-16.5,0-29.9-13.4-29.9-30l0,0c0-16.5,13.4-29.9,29.9-29.9h129
		C1464.6,525.1,1478,538.5,1478,555L1478,555z"/>
	<path fill="#9CC9E0" d="M1444.1,685.6c0,16.5-13.4,29.9-29.9,29.9h-129c-16.5,0-29.9-13.4-29.9-29.9l0,0
		c0-16.5,13.4-29.9,29.9-29.9h129C1430.6,655.6,1444.1,669,1444.1,685.6L1444.1,685.6z"/>
	<path fill="#9CC9E0" d="M1444.1,369c0,16.5-13.4,29.9-29.9,29.9h-129c-16.5,0-29.9-13.4-29.9-29.9l0,0c0-16.5,13.4-30,29.9-30h129
		C1430.6,339.1,1444.1,352.5,1444.1,369L1444.1,369z"/>
	<path fill="#9CC9E0" d="M256.2,671.9c0,16.5-13.4,29.9-30,29.9h-129c-16.5,0-30-13.4-30-29.9l0,0c0-16.5,13.4-30,30-30h129
		C242.8,641.9,256.2,655.3,256.2,671.9L256.2,671.9z"/>
	<path fill="#9CC9E0" d="M256.2,799c0,16.5-13.4,30-30,30h-129c-16.5,0-30-13.4-30-30l0,0c0-16.5,13.4-30,30-30h129
		C242.8,769,256.2,782.4,256.2,799L256.2,799z"/>
	<path fill="#9CC9E0" d="M266.2,556.6c0,16.5-13.4,30-29.9,30h-64.5c-16.5,0-29.9-13.4-29.9-30l0,0c0-16.5,13.4-30,29.9-30h64.5
		C252.8,526.6,266.2,540.1,266.2,556.6L266.2,556.6z"/>
	<path fill="#D1D3D4" d="M1340.9,91.1H695.1H554.1H400.8c-18.3,0-33.1,14.8-33.1,33.1c0,18.3,14.8,33.1,33.1,33.1h43.9h60.8h189.7
		h60.5c15.7,0,28.4,12.7,28.4,28.4c0,15.7-12.7,28.3-28.4,28.3H683H505.5h-60.8H288.8c-25,0-45.2,19.9-45.2,44.5
		s20.2,44.5,45.2,44.5h263.6c0.6,0,1.1,0.1,1.7,0.1H699h103.1c15.7,0,28.4,12.7,28.4,28.4v103.1v48.7h81v-48.7V331.5
		c0-15.7,12.7-28.4,28.4-28.4H1041c15.7,0,28.4,12.7,28.4,28.4v103.1v48.7h81v-48.7V331.5c0-15.7,12.7-28.4,28.4-28.4H1280
		c15.7,0,28.4,12.7,28.4,28.4v103.1v48.7h81V254.5V195v-55.4C1389.5,112.8,1367.7,91.1,1340.9,91.1z"/>
	<rect x="830.5" y="461.7" fill="#FF8470" width="81" height="297"/>
	<rect x="1069.5" y="461.7" fill="#FF8470" width="81" height="297"/>
	<rect x="1308.4" y="461.7" fill="#FF8470" width="81" height="297"/>
	<rect x="817.3" y="758.7" fill="#FFC894" width="107.3" height="18.9"/>
	<rect x="817.3" y="653.4" fill="#FFC894" width="107.3" height="18.9"/>
	<rect x="817.3" y="548.1" fill="#FFC894" width="107.3" height="18.9"/>
	<rect x="817.3" y="442.8" fill="#FFC894" width="107.3" height="18.9"/>
	<rect x="1056.3" y="758.7" fill="#FFC894" width="107.3" height="18.9"/>
	<rect x="1056.3" y="653.4" fill="#FFC894" width="107.3" height="18.9"/>
	<rect x="1056.3" y="548.1" fill="#FFC894" width="107.3" height="18.9"/>
	<rect x="1056.3" y="442.8" fill="#FFC894" width="107.3" height="18.9"/>
	<rect x="1295.3" y="758.7" fill="#FFC894" width="107.3" height="18.9"/>
	<rect x="1295.3" y="653.4" fill="#FFC894" width="107.3" height="18.9"/>
	<rect x="1295.3" y="548.1" fill="#FFC894" width="107.3" height="18.9"/>
	<rect x="1295.3" y="442.8" fill="#FFC894" width="107.3" height="18.9"/>
	<polygon fill="#374D5C" points="697.8,886.3 697.8,1094.2 806.5,1094.2 806.5,777.6 	"/>
	<polygon fill="#435E70" points="936.8,886.3 936.8,777.6 806.5,777.6 806.5,1094.2 936.8,1094.2 936.8,922.4 	"/>
	<polygon fill="#435E70" points="1175.8,886.3 1175.8,777.6 1045.5,777.6 1045.5,1094.2 1175.8,1094.2 1175.8,945.7 	"/>
	<polygon fill="#374D5C" points="936.8,886.3 936.8,922.4 936.8,1094.2 1045.5,1094.2 1045.5,777.6 	"/>
	<rect x="1284.5" y="777.6" fill="#435E70" width="130.3" height="316.6"/>
	<polygon fill="#374D5C" points="1175.8,886.3 1175.8,945.7 1175.8,1094.2 1284.5,1094.2 1284.5,777.6 	"/>
	<rect x="155.8" y="567" fill="#FF8470" width="460.4" height="527.2"/>
	<polygon fill="#EB7967" points="697.8,567 616.2,567 616.2,1094.2 697.8,1094.2 697.8,886.3 	"/>
	<g>
		<rect x="275.9" y="504.2" fill="#FEDD9D" width="229.5" height="62.8"/>
		<rect x="505.5" y="504.2" fill="#EBCC91" width="79.7" height="62.8"/>
	</g>
	<rect x="309" y="456.3" fill="#FFFFFF" width="101.3" height="27"/>
	<rect x="320.5" y="483.3" fill="#58595B" width="13.5" height="20.9"/>
	<rect x="385.6" y="483.3" fill="#58595B" width="13.5" height="20.9"/>
	<rect x="448.1" y="456.3" fill="#FFFFFF" width="101.3" height="27"/>
	<rect x="459.6" y="483.3" fill="#58595B" width="13.5" height="20.9"/>
	<rect x="524.7" y="483.3" fill="#58595B" width="13.5" height="20.9"/>
	<rect x="0" y="1094.2" fill="#BCBEC0" width="1568" height="89.2"/>
	<rect x="0" y="1183.5" fill="#DDE1E3" width="1568" height="15.4"/>
	<polygon fill="#EB7967" points="911.5,479.7 893.1,470.7 830.5,469.8 830.5,461.7 911.5,461.7 	"/>
	<polygon fill="#EB7967" points="911.5,585 893.1,576 830.5,575.1 830.5,567 911.5,567 	"/>
	<polygon fill="#EB7967" points="911.5,690.3 893.1,681.3 830.5,680.4 830.5,672.3 911.5,672.3 	"/>
	<polygon fill="#EB7967" points="1150.5,479.7 1132.1,470.7 1069.5,469.8 1069.5,461.7 1150.5,461.7 	"/>
	<polygon fill="#EB7967" points="1150.5,585 1132.1,576 1069.5,575.1 1069.5,567 1150.5,567 	"/>
	<polygon fill="#EB7967" points="1150.5,690.3 1132.1,681.3 1069.5,680.4 1069.5,672.3 1150.5,672.3 	"/>
	<polygon fill="#EB7967" points="1389.5,479.7 1371.1,470.7 1308.4,469.8 1308.4,461.7 1389.5,461.7 	"/>
	<polygon fill="#EB7967" points="1389.5,585 1371.1,576 1308.4,575.1 1308.4,567 1389.5,567 	"/>
	<polygon fill="#EB7967" points="1389.5,690.3 1371.1,681.3 1308.4,680.4 1308.4,672.3 1389.5,672.3 	"/>
	<g>
		<polygon fill="#6C6E70" points="1568,1198.9 0,1198.9 0,1206.3 1568,1208.6 		"/>
		<polygon fill="#808285" points="0,1206.3 0,1308.2 1568,1308.2 1568,1208.6 		"/>
	</g>
	<path fill="#E5E7E8" d="M891.6,406.8c0,5.7-4.6,10.3-10.3,10.3l0,0c-5.7,0-10.3-4.6-10.3-10.3V283c0-5.7,4.6-10.3,10.3-10.3l0,0
		c5.7,0,10.3,4.6,10.3,10.3V406.8z"/>
	<g>
		<path fill="#E5E7E8" d="M1121.4,417.7c-5.6,0-10.1-4.5-10.1-10.1V266.7c-0.3-3.2-3.9-25.2-39.5-25.2c-5.6,0-10.1-4.5-10.1-10.1
			c0-5.6,4.5-10.1,10.1-10.1c45.2,0,58.8,29.1,59.7,44.5l0,0.6v141.3C1131.6,413.1,1127,417.7,1121.4,417.7z"/>
	</g>
	<path fill="#E5E7E8" d="M911.5,230.6c0,5.2,4.2,9.4,9.4,9.4h108.2c5.2,0,9.4-4.2,9.4-9.4l0,0c0-5.2-4.2-9.4-9.4-9.4H920.9
		C915.7,221.2,911.5,225.4,911.5,230.6L911.5,230.6z"/>
	<path fill="#E5E7E8" d="M286.7,263.3c0,5.2,4.2,9.4,9.4,9.4h108.2c5.2,0,9.4-4.2,9.4-9.4l0,0c0-5.2-4.2-9.4-9.4-9.4H296.1
		C290.9,253.9,286.7,258.1,286.7,263.3L286.7,263.3z"/>
	<path fill="#E5E7E8" d="M930.8,149c0,5.2,4.2,9.4,9.4,9.4h41.7c5.2,0,9.4-4.2,9.4-9.4l0,0c0-5.2-4.2-9.4-9.4-9.4h-41.7
		C934.9,139.7,930.8,143.9,930.8,149L930.8,149z"/>
	<path fill="#E5E7E8" d="M399.1,130.3c0,5.2,4.2,9.4,9.4,9.4h41.7c5.2,0,9.4-4.2,9.4-9.4l0,0c0-5.2-4.2-9.4-9.4-9.4h-41.7
		C403.3,121,399.1,125.1,399.1,130.3L399.1,130.3z"/>
	<path fill="#E5E7E8" d="M1029.2,149c0,5.2,4.2,9.4,9.4,9.4h128.2c5.2,0,9.4-4.2,9.4-9.4l0,0c0-5.2-4.2-9.4-9.4-9.4h-128.2
		C1033.4,139.7,1029.2,143.9,1029.2,149L1029.2,149z"/>
	<g>
		<path fill="#E5E7E8" d="M1359.1,329.6c-5.6,0-10.1-4.5-10.1-10.1v-124c0-12.5-3.2-21.8-9.4-27.7c-8.5-8.1-20.4-7.8-20.5-7.7
			l-0.5,0h-95.2c-5.6,0-10.1-4.5-10.1-10.1c0-5.6,4.5-10.1,10.1-10.1h95c2.9-0.1,21.1,0,35.1,13.3c10.4,9.9,15.7,24.2,15.7,42.4v124
			C1369.2,325,1364.7,329.6,1359.1,329.6z"/>
	</g>
	<path fill="#E5E7E8" d="M1349,411.4c0,5.6,4.5,10.1,10.1,10.1l0,0c5.6,0,10.1-4.5,10.1-10.1v-32.2c0-5.6-4.5-10.1-10.1-10.1l0,0
		c-5.6,0-10.1,4.5-10.1,10.1V411.4z"/>
	<g>
		<path fill="#FFEB63" d="M772.3,1036.3c0,21.1-17.1,38.2-38.2,38.2h-72.2c-21.1,0-38.2-17.1-38.2-38.2V858.2
			c0-21.1,17.1-38.2,38.2-38.2h72.2c21.1,0,38.2,17.1,38.2,38.2V1036.3z"/>
		<rect x="613.3" y="864.4" fill="#FFFFFF" width="169.1" height="14.9"/>
		<polygon fill="#E6D259" points="772.3,893.4 757.8,886.3 623.7,885.6 623.7,879.3 772.3,879.3 		"/>
		<rect x="613.3" y="937.1" fill="#FFFFFF" width="169.1" height="14.9"/>
		<polygon fill="#E6D259" points="772.3,966.1 757.8,959.1 623.7,958.4 623.7,952 772.3,952 		"/>
		<rect x="613.3" y="1009.9" fill="#FFFFFF" width="169.1" height="14.9"/>
		<polygon fill="#E6D259" points="772.3,1038.9 757.8,1031.8 623.7,1031.1 623.7,1024.7 772.3,1024.7 		"/>
		<rect x="659" y="1074.5" fill="#DBDBDB" width="25.1" height="19.7"/>
		<rect x="711.8" y="1074.5" fill="#DBDBDB" width="25.1" height="19.7"/>
	</g>
	<g>
		<path fill="#FFEB63" d="M1005.2,1036.3c0,21.1-17.1,38.2-38.2,38.2h-72.2c-21.1,0-38.2-17.1-38.2-38.2V858.2
			c0-21.1,17.1-38.2,38.2-38.2H967c21.1,0,38.2,17.1,38.2,38.2V1036.3z"/>
		<rect x="846.2" y="864.4" fill="#FFFFFF" width="169.1" height="14.9"/>
		<polygon fill="#E6D259" points="1005.2,893.4 990.7,886.3 856.6,885.6 856.6,879.3 1005.2,879.3 		"/>
		<rect x="846.2" y="937.1" fill="#FFFFFF" width="169.1" height="14.9"/>
		<polygon fill="#E6D259" points="1005.2,966.1 990.7,959.1 856.6,958.4 856.6,952 1005.2,952 		"/>
		<rect x="846.2" y="1009.9" fill="#FFFFFF" width="169.1" height="14.9"/>
		<polygon fill="#E6D259" points="1005.2,1038.9 990.7,1031.8 856.6,1031.1 856.6,1024.7 1005.2,1024.7 		"/>
		<rect x="891.9" y="1074.5" fill="#DBDBDB" width="25.1" height="19.7"/>
		<rect x="944.7" y="1074.5" fill="#DBDBDB" width="25.1" height="19.7"/>
	</g>
	<g>
		<path fill="#FFEB63" d="M1510,1094.2h-28.3v-56.8c0-12.3-3.1-21.5-9.1-27.4c-8.9-8.7-22.2-8.4-22.4-8.4l-0.5,0h-34.9v-28.3h34.6
			c4-0.1,25.8,0,42.5,16c12,11.4,18,27.6,18,48V1094.2z"/>
	</g>
	<g>
		<path fill="#435E70" d="M60.6,1094.2h28.3v-56.8c0-12.3,3.1-21.5,9.1-27.4c8.9-8.7,22.2-8.4,22.4-8.4l0.5,0h34.9v-28.3h-34.6
			c-4-0.1-25.8,0-42.5,16c-12,11.4-18,27.6-18,48V1094.2z"/>
	</g>
	<g>
		<rect x="192.7" y="655.9" fill="#E67665" width="99.9" height="99.9"/>
		<rect x="186.8" y="650" fill="#FFFFFF" width="99.9" height="99.9"/>
		<g>
			<polygon fill="#52738A" points="194.9,658.1 194.9,741.9 278.6,658.1 			"/>
			<polygon fill="#435E70" points="194.9,741.9 278.6,741.9 278.6,658.1 			"/>
		</g>
	</g>
	<g>
		<rect x="341.8" y="655.9" fill="#E67665" width="99.9" height="99.9"/>
		<rect x="336" y="650" fill="#FFFFFF" width="99.9" height="99.9"/>
		<g>
			<polygon fill="#52738A" points="344.1,658.1 344.1,741.9 427.8,658.1 			"/>
			<polygon fill="#435E70" points="344.1,741.9 427.8,741.9 427.8,658.1 			"/>
		</g>
	</g>
	<g>
		<rect x="491" y="655.9" fill="#E67665" width="99.9" height="99.9"/>
		<rect x="485.2" y="650" fill="#FFFFFF" width="99.9" height="99.9"/>
		<g>
			<polygon fill="#52738A" points="493.3,658.1 493.3,741.9 577,658.1 			"/>
			<polygon fill="#435E70" points="493.3,741.9 577,741.9 577,658.1 			"/>
		</g>
	</g>
	<g>
		<rect x="192.7" y="803" fill="#E67665" width="99.9" height="99.9"/>
		<rect x="186.8" y="797.2" fill="#FFFFFF" width="99.9" height="99.9"/>
		<g>
			<polygon fill="#52738A" points="194.9,805.3 194.9,889 278.6,805.3 			"/>
			<polygon fill="#435E70" points="194.9,889 278.6,889 278.6,805.3 			"/>
		</g>
	</g>
	<g>
		<rect x="341.8" y="803" fill="#E67665" width="99.9" height="99.9"/>
		<rect x="336" y="797.2" fill="#FFFFFF" width="99.9" height="99.9"/>
		<g>
			<polygon fill="#52738A" points="344.1,805.3 344.1,889 427.8,805.3 			"/>
			<polygon fill="#435E70" points="344.1,889 427.8,889 427.8,805.3 			"/>
		</g>
	</g>
	<g>
		<rect x="491" y="803" fill="#E67665" width="99.9" height="99.9"/>
		<rect x="485.2" y="797.2" fill="#FFFFFF" width="99.9" height="99.9"/>
		<g>
			<polygon fill="#52738A" points="493.3,805.3 493.3,889 577,805.3 			"/>
			<polygon fill="#435E70" points="493.3,889 577,889 577,805.3 			"/>
		</g>
	</g>
	<g>
		<rect x="192.7" y="950.2" fill="#E67665" width="99.9" height="99.9"/>
		<rect x="186.8" y="944.4" fill="#FFFFFF" width="99.9" height="99.9"/>
		<g>
			<polygon fill="#52738A" points="194.9,952.5 194.9,1036.2 278.6,952.5 			"/>
			<polygon fill="#435E70" points="194.9,1036.2 278.6,1036.2 278.6,952.5 			"/>
		</g>
	</g>
	<g>
		<rect x="341.8" y="950.2" fill="#E67665" width="99.9" height="99.9"/>
		<rect x="336" y="944.4" fill="#FFFFFF" width="99.9" height="99.9"/>
		<g>
			<polygon fill="#52738A" points="344.1,952.5 344.1,1036.2 427.8,952.5 			"/>
			<polygon fill="#435E70" points="344.1,1036.2 427.8,1036.2 427.8,952.5 			"/>
		</g>
	</g>
	<g>
		<rect x="491" y="950.2" fill="#E67665" width="99.9" height="99.9"/>
		<rect x="485.2" y="944.4" fill="#FFFFFF" width="99.9" height="99.9"/>
		<g>
			<polygon fill="#52738A" points="493.3,952.5 493.3,1036.2 577,952.5 			"/>
			<polygon fill="#435E70" points="493.3,1036.2 577,1036.2 577,952.5 			"/>
		</g>
	</g>
	<polygon fill="#374D5C" points="1315.6,846.5 1349.6,812.5 1383.6,846.5 	"/>
	<polygon fill="#374D5C" points="1315.6,935.9 1349.6,901.9 1383.6,935.9 	"/>
	<polygon fill="#374D5C" points="1315.6,1025.3 1349.6,991.3 1383.6,1025.3 	"/>
	<polygon fill="#374D5C" points="1076,846.5 1110,812.5 1144,846.5 	"/>
	<polygon fill="#374D5C" points="1076,935.9 1110,901.9 1144,935.9 	"/>
	<polygon fill="#374D5C" points="1076,1025.3 1110,991.3 1144,1025.3 	"/>
	<path fill="#DBDBDB" d="M265.1,1130.7c0,4.5-3.6,8.1-8.1,8.1H43.7c-4.5,0-8.1-3.6-8.1-8.1l0,0c0-4.5,3.6-8.1,8.1-8.1H257
		C261.5,1122.6,265.1,1126.2,265.1,1130.7L265.1,1130.7z"/>
	<path fill="#DBDBDB" d="M405.5,1130.7c0-4.5-3.6-8.1-8.1-8.1h-80.3c-4.5,0-8.1,3.6-8.1,8.1l0,0c0,4.5,3.6,8.1,8.1,8.1h80.3
		C401.9,1138.9,405.5,1135.2,405.5,1130.7L405.5,1130.7z"/>
	<path fill="#DBDBDB" d="M1304.4,1147c0-4.5,3.6-8.1,8.1-8.1h213.3c4.5,0,8.1,3.6,8.1,8.1l0,0c0,4.5-3.6,8.1-8.1,8.1h-213.3
		C1308,1155.1,1304.4,1151.5,1304.4,1147L1304.4,1147z"/>
	<path fill="#DBDBDB" d="M1164,1147c0,4.5,3.6,8.1,8.1,8.1h80.3c4.5,0,8.1-3.6,8.1-8.1l0,0c0-4.5-3.6-8.1-8.1-8.1h-80.3
		C1167.6,1138.9,1164,1142.5,1164,1147L1164,1147z"/>
	<rect x="34.2" y="1244" fill="#DBDBDB" width="90" height="10"/>
	<rect x="174.8" y="1244" fill="#DBDBDB" width="90" height="10"/>
	<rect x="315.5" y="1244" fill="#DBDBDB" width="90" height="10"/>
	<rect x="456.1" y="1244" fill="#DBDBDB" width="90" height="10"/>
	<rect x="596.7" y="1244" fill="#DBDBDB" width="90" height="10"/>
	<rect x="737.4" y="1244" fill="#DBDBDB" width="90" height="10"/>
	<rect x="878" y="1244" fill="#DBDBDB" width="90" height="10"/>
	<rect x="1018.6" y="1244" fill="#DBDBDB" width="90" height="10"/>
	<rect x="1159.3" y="1244" fill="#DBDBDB" width="90" height="10"/>
	<rect x="1299.9" y="1244" fill="#DBDBDB" width="90" height="10"/>
	<rect x="1440.6" y="1244" fill="#DBDBDB" width="90" height="10"/>
	<g>
		<polygon fill="#53A173" points="1568,1308.2 0,1308.2 0,1319.7 1568,1321 		"/>
		<polygon fill="#5EB582" points="0,1319.7 0,1400 1568,1400 1568,1321 		"/>
	</g>
	<path fill="#8CB5CB" d="M798.4,380.7c0,14.5-11.8,26.3-26.3,26.3H531.8c-14.5,0-26.3-11.8-26.3-26.3l0,0
		c0-14.5,11.8-26.3,26.3-26.3h240.3C786.6,354.4,798.4,366.2,798.4,380.7L798.4,380.7z"/>
	<path fill="#8CB5CB" d="M606.2,470.7c0,13.4,10.9,24.3,24.3,24.3h111.1c13.4,0,24.3-10.9,24.3-24.3l0,0c0-13.4-10.9-24.3-24.3-24.3
		H630.5C617.1,446.4,606.2,457.3,606.2,470.7L606.2,470.7z"/>
</g>
</svg>
