<?xml version="1.0" encoding="utf-8"?>
<!-- Generator: Adobe Illustrator 18.0.0, SVG Export Plug-In . SVG Version: 6.00 Build 0)  -->
<!DOCTYPE svg PUBLIC "-//W3C//DTD SVG 1.1//EN" "http://www.w3.org/Graphics/SVG/1.1/DTD/svg11.dtd">
<svg version="1.1" id="Layer_1" xmlns="http://www.w3.org/2000/svg" xmlns:xlink="http://www.w3.org/1999/xlink" x="0px" y="0px"
	 width="1400px" height="980px" viewBox="0 0 1400 980" enable-background="new 0 0 1400 980" xml:space="preserve">
<g>
	<defs>
		<rect id="SVGID_1_" width="1400" height="980"/>
	</defs>
	<clipPath id="SVGID_2_">
		<use xlink:href="#SVGID_1_"  overflow="visible"/>
	</clipPath>
	<rect clip-path="url(#SVGID_2_)" fill="#86D0CF" width="1400" height="980"/>
	<g clip-path="url(#SVGID_2_)">
		<rect x="839.5" y="37.3" fill="#FCFFF1" width="489.6" height="527.5"/>
		<rect x="859.5" y="57.3" fill="#A0D2DD" width="449.6" height="487.5"/>
		<polygon fill="#B2E5ED" points="914.7,544.8 1010.5,57.3 1067,57.3 971.2,544.8 		"/>
		<polygon fill="#B2E5ED" points="1011.9,544.8 1107.7,57.3 1229.1,57.3 1133.2,544.8 		"/>
		<rect x="880.9" y="37.3" fill="#D8E6EF" width="27.6" height="527.5"/>
		<rect x="936" y="37.3" fill="#D8E6EF" width="27.6" height="527.5"/>
		<rect x="991.2" y="37.3" fill="#D8E6EF" width="27.6" height="527.5"/>
		<rect x="1046.4" y="37.3" fill="#D8E6EF" width="27.6" height="527.5"/>
		<rect x="825.7" y="16.3" fill="#4D6077" width="517.1" height="42"/>
	</g>
	<g clip-path="url(#SVGID_2_)">
		<polygon fill="#FDA76E" points="818,472.8 813.9,538.3 842,543.7 851.4,474.1 		"/>
		<polygon fill="#B23867" points="995.9,349.7 1036.1,476.8 1001.3,496.8 954.4,412.5 		"/>
		<polygon fill="#B23867" points="854.1,349.7 813.9,476.8 848.7,496.8 895.6,412.5 		"/>
		<path fill="#FDA76E" d="M899.6,309.5v22.7L854.1,351c0,0-8,48.2,1.3,87c9.4,38.8,16.1,76.3,16.1,76.3h64.2
			c0,0,38.8-96.3,41.5-104.4c2.7-8,10.7-61.6,10.7-61.6l-49.5-14.7l-4-38.8L899.6,309.5z"/>
		<path fill="#FDA76E" d="M899.6,309.5v22.7L854.1,351c0,0-8,48.2,1.3,87c9.4,38.8,16.1,76.3,16.1,76.3h64.2
			c0,0,38.8-96.3,41.5-104.4c2.7-8,10.7-61.6,10.7-61.6l-49.5-14.7l-4-38.8L899.6,309.5z"/>
		<path fill="#D35B83" d="M884.9,336.3c0,0,4,25.4,25.4,29.4c21.4,4,45.5-29.4,45.5-29.4l40.1,13.4l-50.9,172.6h-74.9
			c0,0-14.7-88.3-20.1-109.7c-5.4-21.4,4-61.6,4-61.6L884.9,336.3z"/>
		<path fill="#824A27" d="M946.4,142.2c0,0,26.8-26.8,54.9-5.4c28.1,21.4,18.7,72.3,14.7,99c-4,26.8,5.4,49.5,5.4,49.5H834
			c0,0-20.1-112.4,32.1-135.2C918.3,127.5,946.4,142.2,946.4,142.2z"/>
		<path fill="#FAC68A" d="M984.6,178.4l-65.6,6.7l-65.6-6.7c0,0-12.2,8,0,69.6c5.1,25.8,17.4,43.6,30,55.6c20,19,51.1,19,71.1,0
			c12.6-12,24.9-29.8,30-55.6C996.8,186.4,984.6,178.4,984.6,178.4z"/>
		<path fill="#824A27" d="M953.1,178.4c0,0-24.1,16.1-58.9,29.4c-25.5,9.8-72.3,16.1-72.3,16.1s8-104.4,83-103c0,0,28.1-4,42.8,10.7
			C947.8,131.5,966.5,163.6,953.1,178.4z"/>
		<path fill="#824A27" d="M946.4,175.7c0,0-1.3,48.2,40.1,66.9l12-54.9l-14.7-32.1L946.4,175.7z"/>
		<g>
			<path fill="#9F3C1F" d="M894,287.4h38.7c0,0-0.8,13.5-21.9,13.5C897.4,300.8,894,287.4,894,287.4z"/>
			<path fill="#FFF5F3" d="M910.9,294.1c10.5,0,16-3.4,18.8-6.7h-32.3C899.9,290.8,904.1,294.1,910.9,294.1z"/>
		</g>
		<path fill="#DB9652" d="M903.2,252.4c-4,5.1-2.4,13.6,3.1,16.9c1.2,0.2,2.5,0.4,3.7,0.5C904.7,265.9,902,258.9,903.2,252.4z"/>
		<ellipse fill="#804A26" cx="939.7" cy="231.9" rx="6.7" ry="9.4"/>
		<ellipse fill="#804A26" cx="883.5" cy="231.9" rx="6.7" ry="9.4"/>
		<path fill="#824A27" d="M924.3,214.2c14.2-13.5,39.1-13.5,53.2,0C960.4,208.8,941.5,208.8,924.3,214.2z"/>
		<path fill="#824A27" d="M850.7,214.2c14.2-13.5,39.1-13.5,53.2,0C886.8,208.8,867.9,208.8,850.7,214.2z"/>
		<polygon fill="#B23867" points="960.3,88.9 927.7,78 895.1,88.9 878.8,146.8 927.7,170.3 976.6,146.8 		"/>
		<path fill="#FDA76E" d="M1001.3,492c0,0,15.2-75.9,73.4-121.5c0,0-3.8-27.8,12.7-46.8c0,0,6.3,1.3,2.5,16.4c-3.8,15.2,0.7,7,0.7,7
			s10.6-36.1,20.8-37.4c10.1-1.3-3.8,31.6-3.8,31.6s12.7-31.6,17.7-27.8c5.1,3.8-3.8,27.8-8.9,35.4c0,0,15.2-29.1,17.7-21.5
			c2.5,7.6-15.2,32.9-15.2,32.9s15.2-19,17.7-13.9c2.5,5.1-16.4,26.6-24,30.4s-19.2,13.6-19.2,13.6s-16.7,64.2-73.1,110.4
			C1020.3,500.8,1002.5,516,1001.3,492z"/>
		<polygon fill="#63689F" points="870.1,522.3 818,630.7 1013.3,640 945.1,522.3 		"/>
		<polygon fill="#FDA76E" points="813.9,538.3 825,630.3 860.3,630.3 842.1,543.6 835.7,514.3 		"/>
	</g>
	<rect x="-10.8" y="752.5" clip-path="url(#SVGID_2_)" fill="#489B95" width="1436.9" height="234"/>
	<rect x="-10.8" y="730" clip-path="url(#SVGID_2_)" fill="#60BAB1" width="1436.9" height="28.5"/>
	<rect x="65.4" y="744.8" clip-path="url(#SVGID_2_)" fill="#5A697C" width="81.5" height="71.6"/>
	<rect x="586.7" y="744.8" clip-path="url(#SVGID_2_)" fill="#5A697C" width="76.6" height="71.6"/>
	<g clip-path="url(#SVGID_2_)">
		<rect x="0" y="-2.5" fill="#E6F3FF" width="809" height="769.3"/>
		<rect x="20.9" y="15.2" fill="#5A697C" width="756" height="130.2"/>
		<rect x="20.9" y="165.1" fill="#5A697C" width="756" height="130.2"/>
		<rect x="20.9" y="315.1" fill="#5A697C" width="756" height="130.2"/>
		<rect x="20.9" y="463.3" fill="#5A697C" width="756" height="130.2"/>
		<rect x="-6.3" y="613.9" fill="#EA5454" width="837.5" height="175.4"/>
		<rect x="-6.3" y="613.9" fill="#BF4545" width="837.5" height="26.9"/>
		<polygon opacity="0.14" fill="#FFD9D9" points="24.3,789.2 -6.3,789.2 105.6,613.9 136.2,613.9 		"/>
		<polygon opacity="0.14" fill="#FFD9D9" points="258.3,789.2 227.7,789.2 339.6,613.9 370.2,613.9 		"/>
		<polygon opacity="0.14" fill="#FFD9D9" points="172.8,789.2 77.7,789.2 189.6,613.9 284.7,613.9 		"/>
	</g>
	<rect x="1085.7" y="487.8" clip-path="url(#SVGID_2_)" fill="#A6A6B2" width="91.4" height="42"/>
	<rect x="1112.9" y="505.1" clip-path="url(#SVGID_2_)" fill="#97979E" width="37.1" height="59.3"/>
	<rect x="991.8" y="539.7" clip-path="url(#SVGID_2_)" fill="#BFBFBF" width="210" height="86.5"/>
	<rect x="1234.6" y="450.8" clip-path="url(#SVGID_2_)" fill="#62626B" width="18.5" height="197.6"/>
	<rect x="675.6" y="764.5" clip-path="url(#SVGID_2_)" fill="#9F9FA5" width="612.7" height="170.5"/>
	<rect x="675.6" y="764.5" clip-path="url(#SVGID_2_)" fill="#7C7C82" width="612.7" height="96.4"/>
	<rect x="633.6" y="631.1" clip-path="url(#SVGID_2_)" fill="#BFBFBF" width="694.2" height="214.9"/>
	<rect x="600.2" y="603.9" clip-path="url(#SVGID_2_)" fill="#71717C" width="760.9" height="71.6"/>
	<rect x="1243.8" y="707.7" clip-path="url(#SVGID_2_)" fill="#71717C" width="14.8" height="106.2"/>
	<g clip-path="url(#SVGID_2_)">
		<path fill="#71717C" d="M1254.2,802.1H1040c-22.8,0-41.3-18.5-41.3-41.3c0-22.8,18.5-41.3,41.3-41.3h214.2V802.1z M1040,725.5
			c-19.5,0-35.3,15.8-35.3,35.3c0,19.5,15.8,35.3,35.3,35.3h208.2v-70.6H1040z"/>
	</g>
	<rect x="1200.6" y="438.4" clip-path="url(#SVGID_2_)" fill="#62626B" width="86.5" height="29.6"/>
	<g clip-path="url(#SVGID_2_)">
		<path fill="#D3321C" d="M70.7,522.3L64.9,487H50.5H36.1l-5.8,35.2c-2.1,9.6-2.9,19.7-2.4,29.7l9,40.6h13.5h13.5l9-40.6
			C73.6,542,72.8,531.9,70.7,522.3z"/>
		<rect x="31.9" y="481.6" fill="#F0F0F0" width="37.3" height="8.9"/>
		<ellipse fill="#F0F0F0" cx="50.5" cy="537.8" rx="12.9" ry="29.4"/>
	</g>
	<g clip-path="url(#SVGID_2_)">
		<path fill="#D3321C" d="M120.1,522.3l-5.8-35.2H99.9H85.5l-5.8,35.2c-2.1,9.6-2.9,19.7-2.4,29.7l9,40.6h13.5h13.5l9-40.6
			C123,542,122.2,531.9,120.1,522.3z"/>
		<rect x="81.3" y="481.6" fill="#F0F0F0" width="37.3" height="8.9"/>
		<ellipse fill="#F0F0F0" cx="99.9" cy="537.8" rx="12.9" ry="29.4"/>
	</g>
	<g clip-path="url(#SVGID_2_)">
		<path fill="#D3321C" d="M169.5,522.3l-5.8-35.2h-14.4H135l-5.8,35.2c-2.1,9.6-2.9,19.7-2.4,29.7l9,40.6h13.5h13.5l9-40.6
			C172.4,542,171.6,531.9,169.5,522.3z"/>
		<rect x="130.7" y="481.6" fill="#F0F0F0" width="37.3" height="8.9"/>
		<ellipse fill="#F0F0F0" cx="149.4" cy="537.8" rx="12.9" ry="29.4"/>
	</g>
	<g clip-path="url(#SVGID_2_)">
		<path fill="#D3321C" d="M218.9,522.3l-5.8-35.2h-14.4h-14.4l-5.8,35.2c-2.1,9.6-2.9,19.7-2.4,29.7l9,40.6h13.5h13.5l9-40.6
			C221.8,542,221,531.9,218.9,522.3z"/>
		<rect x="180.1" y="481.6" fill="#F0F0F0" width="37.3" height="8.9"/>
		<ellipse fill="#F0F0F0" cx="198.8" cy="537.8" rx="12.9" ry="29.4"/>
	</g>
	<rect x="238.2" y="474.1" clip-path="url(#SVGID_2_)" fill="#7CA5CE" width="61.5" height="118.5"/>
	<rect x="238.2" y="474.1" clip-path="url(#SVGID_2_)" fill="#FCD522" width="61.5" height="6.9"/>
	<path clip-path="url(#SVGID_2_)" fill="#C5E2F9" d="M299.7,520h-10.9c-4.8-4.6-11.9-7.5-19.8-7.5s-15,2.9-19.8,7.5h-10.9v28.5h10.9
		c4.8,4.6,11.9,7.5,19.8,7.5s15-2.9,19.8-7.5h10.9V520z"/>
	<g clip-path="url(#SVGID_2_)">
		<rect x="310.2" y="474.1" fill="#7CA5CE" width="61.5" height="118.5"/>
		<rect x="310.2" y="474.1" fill="#FCD522" width="61.5" height="6.9"/>
		<path fill="#C5E2F9" d="M371.7,520h-10.9c-4.8-4.6-11.9-7.5-19.8-7.5s-15,2.9-19.8,7.5h-10.9v28.5h10.9c4.8,4.6,11.9,7.5,19.8,7.5
			s15-2.9,19.8-7.5h10.9V520z"/>
	</g>
	<g clip-path="url(#SVGID_2_)">
		<rect x="382.2" y="474.1" fill="#7CA5CE" width="61.5" height="118.5"/>
		<rect x="382.2" y="474.1" fill="#FCD522" width="61.5" height="6.9"/>
		<path fill="#C5E2F9" d="M443.7,520h-10.9c-4.8-4.6-11.9-7.5-19.8-7.5s-15,2.9-19.8,7.5h-10.9v28.5h10.9c4.8,4.6,11.9,7.5,19.8,7.5
			s15-2.9,19.8-7.5h10.9V520z"/>
	</g>
	<g clip-path="url(#SVGID_2_)">
		<rect x="454.2" y="474.1" fill="#7CA5CE" width="61.5" height="118.5"/>
		<rect x="454.2" y="474.1" fill="#FCD522" width="61.5" height="6.9"/>
		<path fill="#C5E2F9" d="M515.7,520h-10.9c-4.8-4.6-11.9-7.5-19.8-7.5s-15,2.9-19.8,7.5h-10.9v28.5h10.9c4.8,4.6,11.9,7.5,19.8,7.5
			s15-2.9,19.8-7.5h10.9V520z"/>
	</g>
	<g clip-path="url(#SVGID_2_)">
		<path fill="#C5E2F9" d="M554.7,484l-16.6,9.7c-6.1,3.5-9.8,10-9.8,17v81.9h26.3H581v-81.9c0-7-3.7-13.5-9.8-17L554.7,484z"/>
		<rect x="542" y="478.5" fill="#C5E2F9" width="25.2" height="30.7"/>
		<rect x="537.7" y="474.1" fill="#678CA5" width="34" height="11"/>
		<rect x="528.3" y="516.9" fill="#9BBFD3" width="52.7" height="38.4"/>
		<rect x="528.3" y="520.2" fill="#F5FBFF" width="52.7" height="29.6"/>
	</g>
	<g clip-path="url(#SVGID_2_)">
		<path fill="#C5E2F9" d="M616.2,484l-16.6,9.7c-6.1,3.5-9.8,10-9.8,17v81.9h26.3h26.3v-81.9c0-7-3.7-13.5-9.8-17L616.2,484z"/>
		<rect x="603.5" y="478.5" fill="#C5E2F9" width="25.2" height="30.7"/>
		<rect x="599.1" y="474.1" fill="#678CA5" width="34" height="11"/>
		<rect x="589.8" y="516.9" fill="#9BBFD3" width="52.7" height="38.4"/>
		<rect x="589.8" y="520.2" fill="#F5FBFF" width="52.7" height="29.6"/>
	</g>
	<g clip-path="url(#SVGID_2_)">
		<path fill="#C5E2F9" d="M677.7,484l-16.6,9.7c-6.1,3.5-9.8,10-9.8,17v81.9h26.3H704v-81.9c0-7-3.7-13.5-9.8-17L677.7,484z"/>
		<rect x="665" y="478.5" fill="#C5E2F9" width="25.2" height="30.7"/>
		<rect x="660.6" y="474.1" fill="#678CA5" width="34" height="11"/>
		<rect x="651.3" y="516.9" fill="#9BBFD3" width="52.7" height="38.4"/>
		<rect x="651.3" y="520.2" fill="#F5FBFF" width="52.7" height="29.6"/>
	</g>
	<g clip-path="url(#SVGID_2_)">
		<path fill="#C5E2F9" d="M739.1,484l-16.6,9.7c-6.1,3.5-9.8,10-9.8,17v81.9h26.3h26.3v-81.9c0-7-3.7-13.5-9.8-17L739.1,484z"/>
		<rect x="726.5" y="478.5" fill="#C5E2F9" width="25.2" height="30.7"/>
		<rect x="722.1" y="474.1" fill="#678CA5" width="34" height="11"/>
		<rect x="712.8" y="516.9" fill="#9BBFD3" width="52.7" height="38.4"/>
		<rect x="712.8" y="520.2" fill="#F5FBFF" width="52.7" height="29.6"/>
	</g>
	<g clip-path="url(#SVGID_2_)">
		<rect x="28.9" y="361.7" fill="#25A6D7" width="58.3" height="83.3"/>
		<rect x="24.2" y="354.2" fill="#C2F1FF" width="67.4" height="14.2"/>
		<path fill="#1D5D70" d="M87.1,389.2H75.7c-3.3-7.4-10-12.5-17.7-12.5c-7.7,0-14.4,5.1-17.7,12.5H28.9v21.7h11.4
			c3.3,7.4,10,12.5,17.7,12.5c7.7,0,14.4-5.1,17.7-12.5h11.4V389.2z"/>
	</g>
	<g clip-path="url(#SVGID_2_)">
		<rect x="100.9" y="361.7" fill="#25A6D7" width="58.3" height="83.3"/>
		<rect x="96.2" y="354.2" fill="#C2F1FF" width="67.4" height="14.2"/>
		<path fill="#1D5D70" d="M159.1,389.2h-11.4c-3.3-7.4-10-12.5-17.7-12.5c-7.7,0-14.4,5.1-17.7,12.5h-11.4v21.7h11.4
			c3.3,7.4,10,12.5,17.7,12.5c7.7,0,14.4-5.1,17.7-12.5h11.4V389.2z"/>
	</g>
	<g clip-path="url(#SVGID_2_)">
		<rect x="172.9" y="361.7" fill="#25A6D7" width="58.3" height="83.3"/>
		<rect x="168.2" y="354.2" fill="#C2F1FF" width="67.4" height="14.2"/>
		<path fill="#1D5D70" d="M231.1,389.2h-11.4c-3.3-7.4-10-12.5-17.7-12.5c-7.7,0-14.4,5.1-17.7,12.5h-11.4v21.7h11.4
			c3.3,7.4,10,12.5,17.7,12.5c7.7,0,14.4-5.1,17.7-12.5h11.4V389.2z"/>
	</g>
	<g clip-path="url(#SVGID_2_)">
		<rect x="244.9" y="361.7" fill="#25A6D7" width="58.3" height="83.3"/>
		<rect x="240.2" y="354.2" fill="#C2F1FF" width="67.4" height="14.2"/>
		<path fill="#1D5D70" d="M303.1,389.2h-11.4c-3.3-7.4-10-12.5-17.7-12.5c-7.7,0-14.4,5.1-17.7,12.5h-11.4v21.7h11.4
			c3.3,7.4,10,12.5,17.7,12.5c7.7,0,14.4-5.1,17.7-12.5h11.4V389.2z"/>
	</g>
	<g clip-path="url(#SVGID_2_)">
		<path fill="#FFFFFF" d="M367.4,353.8L367.4,353.8c-4.9-6.8-7.5-15-7.5-23.3v-7.1h-10h-10v7.1c0,8.4-2.6,16.5-7.5,23.3l0,0
			c-4.9,6.8-7.5,15-7.5,23.3V445H350h24.9v-67.8C374.9,368.8,372.3,360.6,367.4,353.8z"/>
		<rect x="337.1" y="320.5" fill="#95B2BA" width="25.9" height="12.9"/>
		<rect x="325.1" y="380.2" fill="#95B2BA" width="49.8" height="25.9"/>
		
			<ellipse transform="matrix(0.9784 -0.2068 0.2068 0.9784 -73.8465 81.0094)" fill="#F0FCFF" cx="350.5" cy="393.7" rx="22.2" ry="8.1"/>
	</g>
	<g clip-path="url(#SVGID_2_)">
		<path fill="#FFFFFF" d="M422.9,353.8L422.9,353.8c-4.9-6.8-7.5-15-7.5-23.3v-7.1h-10h-10v7.1c0,8.4-2.6,16.5-7.5,23.3l0,0
			c-4.9,6.8-7.5,15-7.5,23.3V445h24.9h24.9v-67.8C430.4,368.8,427.8,360.6,422.9,353.8z"/>
		<rect x="392.6" y="320.5" fill="#95B2BA" width="25.9" height="12.9"/>
		<rect x="380.6" y="380.2" fill="#95B2BA" width="49.8" height="25.9"/>
		
			<ellipse transform="matrix(0.9784 -0.2068 0.2068 0.9784 -72.6465 92.4882)" fill="#F0FCFF" cx="406" cy="393.7" rx="22.2" ry="8.1"/>
	</g>
	<g clip-path="url(#SVGID_2_)">
		<path fill="#FFFFFF" d="M478.4,353.8L478.4,353.8c-4.9-6.8-7.5-15-7.5-23.3v-7.1h-10h-10v7.1c0,8.4-2.6,16.5-7.5,23.3l0,0
			c-4.9,6.8-7.5,15-7.5,23.3V445H461h24.9v-67.8C485.9,368.8,483.3,360.6,478.4,353.8z"/>
		<rect x="448.1" y="320.5" fill="#95B2BA" width="25.9" height="12.9"/>
		<rect x="436.1" y="380.2" fill="#95B2BA" width="49.8" height="25.9"/>
		
			<ellipse transform="matrix(0.9784 -0.2068 0.2068 0.9784 -71.4464 103.9671)" fill="#F0FCFF" cx="461.5" cy="393.7" rx="22.2" ry="8.1"/>
	</g>
	<g clip-path="url(#SVGID_2_)">
		<path fill="#FFFFFF" d="M533.9,353.8L533.9,353.8c-4.9-6.8-7.5-15-7.5-23.3v-7.1h-10h-10v7.1c0,8.4-2.6,16.5-7.5,23.3l0,0
			c-4.9,6.8-7.5,15-7.5,23.3V445h24.9h24.9v-67.8C541.4,368.8,538.8,360.6,533.9,353.8z"/>
		<rect x="503.5" y="320.5" fill="#95B2BA" width="25.9" height="12.9"/>
		<rect x="491.6" y="380.2" fill="#95B2BA" width="49.8" height="25.9"/>
		
			<ellipse transform="matrix(0.9784 -0.2068 0.2068 0.9784 -70.2463 115.4459)" fill="#F0FCFF" cx="517" cy="393.7" rx="22.2" ry="8.1"/>
	</g>
	<g clip-path="url(#SVGID_2_)">
		<g>
			<path fill="#FFFFFF" d="M597.4,353.8L597.4,353.8c-4.9-6.8-7.5-15-7.5-23.3v-7.1h-10h-10v7.1c0,8.4-2.6,16.5-7.5,23.3l0,0
				c-4.9,6.8-7.5,15-7.5,23.3V445H580h24.9v-67.8C604.9,368.8,602.2,360.6,597.4,353.8z"/>
			<rect x="567" y="320.5" fill="#FCA82D" width="25.9" height="12.9"/>
			<rect x="555.1" y="380.2" fill="#FCA82D" width="49.8" height="25.9"/>
			
				<ellipse transform="matrix(0.9784 -0.2068 0.2068 0.9784 -68.8739 128.572)" fill="#F0FCFF" cx="580.5" cy="393.7" rx="22.2" ry="8.1"/>
		</g>
		<g>
			<path fill="#FFFFFF" d="M652.9,353.8L652.9,353.8c-4.9-6.8-7.5-15-7.5-23.3v-7.1h-10h-10v7.1c0,8.4-2.6,16.5-7.5,23.3l0,0
				c-4.9,6.8-7.5,15-7.5,23.3V445h24.9h24.9v-67.8C660.4,368.8,657.7,360.6,652.9,353.8z"/>
			<rect x="622.5" y="320.5" fill="#FCA82D" width="25.9" height="12.9"/>
			<rect x="610.6" y="380.2" fill="#FCA82D" width="49.8" height="25.9"/>
			
				<ellipse transform="matrix(0.9784 -0.2068 0.2068 0.9784 -67.6737 140.0505)" fill="#F0FCFF" cx="636" cy="393.7" rx="22.2" ry="8.1"/>
		</g>
		<g>
			<path fill="#FFFFFF" d="M708.4,353.8L708.4,353.8c-4.9-6.8-7.5-15-7.5-23.3v-7.1h-10h-10v7.1c0,8.4-2.6,16.5-7.5,23.3l0,0
				c-4.9,6.8-7.5,15-7.5,23.3V445H691h24.9v-67.8C715.8,368.8,713.2,360.6,708.4,353.8z"/>
			<rect x="678" y="320.5" fill="#FCA82D" width="25.9" height="12.9"/>
			<rect x="666.1" y="380.2" fill="#FCA82D" width="49.8" height="25.9"/>
			
				<ellipse transform="matrix(0.9784 -0.2068 0.2068 0.9784 -66.4738 151.5296)" fill="#F0FCFF" cx="691.4" cy="393.7" rx="22.2" ry="8.1"/>
		</g>
		<g>
			<path fill="#FFFFFF" d="M763.9,353.8L763.9,353.8c-4.9-6.8-7.5-15-7.5-23.3v-7.1h-10h-10v7.1c0,8.4-2.6,16.5-7.5,23.3l0,0
				c-4.9,6.8-7.5,15-7.5,23.3V445h24.9h24.9v-67.8C771.3,368.8,768.7,360.6,763.9,353.8z"/>
			<rect x="733.5" y="320.5" fill="#FCA82D" width="25.9" height="12.9"/>
			<rect x="721.5" y="380.2" fill="#FCA82D" width="49.8" height="25.9"/>
			
				<ellipse transform="matrix(0.9784 -0.2068 0.2068 0.9784 -65.2737 163.0085)" fill="#F0FCFF" cx="746.9" cy="393.7" rx="22.2" ry="8.1"/>
		</g>
	</g>
	<g clip-path="url(#SVGID_2_)">
		<path fill="#B52A2A" d="M399.5,226.7c-11.7-0.2-21.5,9.2-21.8,20.9l-0.4,19.6c-0.2,11.7,9.2,21.5,20.9,21.8l62.5,1.2v-62.3
			L399.5,226.7z"/>
		<g>
			<path fill="#E0BB53" d="M224,235l-124.5-2.4c-11.7-0.2-21.5,9.2-21.8,20.9l-0.4,19.6c-0.2,11.7,9.2,21.5,20.9,21.8l124.5,2.4
				c11.7,0.2,21.5-9.2,21.8-20.9l0.4-19.6C245.2,245,235.7,235.3,224,235z"/>
			<path fill="#F4D37F" d="M146.9,249.9H97.1c-2,0-3.6-1.6-3.6-3.6l0,0c0-2,1.6-3.6,3.6-3.6h49.8c2,0,3.6,1.6,3.6,3.6l0,0
				C150.5,248.2,148.9,249.9,146.9,249.9z"/>
		</g>
		<g>
			<path fill="#B52A2A" d="M619,225l-124.5-2.4c-11.7-0.2-21.5,9.2-21.8,20.9l-0.4,19.6c-0.2,11.7,9.2,21.5,20.9,21.8l124.5,2.4
				c11.7,0.2,21.5-9.2,21.8-20.9l0.4-19.6C640.2,235,630.8,225.3,619,225z"/>
			<path fill="#E0BB53" d="M622,234l-124.5-2.4c-11.7-0.2-21.5,9.2-21.8,20.9l-0.4,19.6c-0.2,11.7,9.2,21.5,20.9,21.8l124.5,2.4
				c11.7,0.2,21.5-9.2,21.8-20.9l0.4-19.6C643.2,244,633.8,234.3,622,234z"/>
			<path fill="#AA232A" d="M566.8,167.1l-124.5,1.2c-11.7,0.1-21.3,9.8-21.1,21.6l0.2,19.6c0.1,11.7,9.8,21.3,21.6,21.1l124.5-1.2
				c11.7-0.1,21.3-9.8,21.1-21.6l-0.2-19.6C588.2,176.5,578.5,167,566.8,167.1z"/>
			<path fill="#F4D37F" d="M545,248.9h-49.8c-2,0-3.6-1.6-3.6-3.6l0,0c0-2,1.6-3.6,3.6-3.6H545c2,0,3.6,1.6,3.6,3.6l0,0
				C548.5,247.2,546.9,248.9,545,248.9z"/>
		</g>
		<g>
			<path fill="#E0BB53" d="M460.9,233.8l-61.3-1.2c-11.7-0.2-21.5,9.2-21.8,20.9l-0.4,19.6c-0.2,11.7,9.2,21.5,20.9,21.8l62.5,1.2
				V233.8z"/>
			<path fill="#F4D37F" d="M447,249.9h-49.8c-2,0-3.6-1.6-3.6-3.6l0,0c0-2,1.6-3.6,3.6-3.6H447c2,0,3.6,1.6,3.6,3.6l0,0
				C450.5,248.2,448.9,249.9,447,249.9z"/>
		</g>
		<path fill="#B52A2A" d="M693,277.2c8.1,8.5,21.7,8.7,30.2,0.6l14.1-13.6c8.5-8.1,8.7-21.7,0.6-30.2l-43.4-45.1l-44,44L693,277.2z"
			/>
		<g>
			<path fill="#E0BB53" d="M639.7,243.7l42.5,44.2c8.1,8.5,21.7,8.7,30.2,0.6l14.1-13.6c8.5-8.1,8.7-21.7,0.6-30.2l-43.4-45.1
				L639.7,243.7z"/>
			<path fill="#F4D37F" d="M660.9,242.2l35.2,35.2c1.4,1.4,1.4,3.6,0,5l0,0c-1.4,1.4-3.6,1.4-5,0l-35.2-35.2c-1.4-1.4-1.4-3.6,0-5
				l0,0C657.2,240.8,659.5,240.8,660.9,242.2z"/>
		</g>
		<g>
			<path fill="#C19A36" d="M192,172.2l-124.5-2.4c-11.7-0.2-21.5,9.2-21.8,20.9l-0.4,19.6c-0.2,11.7,9.2,21.5,20.9,21.8l124.5,2.4
				c11.7,0.2,21.5-9.2,21.8-20.9l0.4-19.6C213.1,182.2,203.7,172.4,192,172.2z"/>
			<path fill="#F4D37F" d="M114.9,187H65.1c-2,0-3.6-1.6-3.6-3.6l0,0c0-2,1.6-3.6,3.6-3.6h49.8c2,0,3.6,1.6,3.6,3.6l0,0
				C118.5,185.4,116.9,187,114.9,187z"/>
		</g>
		<g>
			<path fill="#E0BB53" d="M328.5,250.4L254,171.1c-7-7.5-18.9-7.8-26.4-0.8L215.2,182c-7.5,7-7.8,18.9-0.8,26.4l74.5,79.3
				c7,7.5,18.9,7.8,26.4,0.8l12.5-11.7C335.2,269.7,335.5,257.9,328.5,250.4z"/>
			<path fill="#F4D37F" d="M272.2,211.3l-30.4-31.1c-1.2-1.2-1.2-3.2,0.1-4.4l0,0c1.2-1.2,3.2-1.2,4.4,0.1l30.4,31.1
				c1.2,1.2,1.2,3.2-0.1,4.4l0,0C275.4,212.5,273.4,212.5,272.2,211.3z"/>
		</g>
	</g>
	<g clip-path="url(#SVGID_2_)">
		<path fill="#FFFFFA" d="M64.4,35.7h-10h-10L33,68c-0.8,2.3-1.2,4.6-1.2,7v70h22.6H77V75c0-2.4-0.4-4.7-1.2-7L64.4,35.7z"/>
		<path fill="#B79663" d="M54.4,74.9c-10,0-14.1,10.1-14.1,10.1v41.3h14.1h14.1V85.1C68.5,85.1,64.4,74.9,54.4,74.9z"/>
		<polygon fill="#C1B6B6" points="54.4,35.7 44.4,35.7 35.9,59.7 72.9,59.7 64.4,35.7 		"/>
		<rect x="40.8" y="29.4" fill="#2D8644" width="27.1" height="9.3"/>
	</g>
	<g clip-path="url(#SVGID_2_)">
		<path fill="#FFFFFA" d="M120.4,35.7h-10h-10L89,68c-0.8,2.3-1.2,4.6-1.2,7v70h22.6H133V75c0-2.4-0.4-4.7-1.2-7L120.4,35.7z"/>
		<path fill="#B79663" d="M110.4,74.9c-10,0-14.1,10.1-14.1,10.1v41.3h14.1h14.1V85.1C124.5,85.1,120.4,74.9,110.4,74.9z"/>
		<polygon fill="#C1B6B6" points="110.4,35.7 100.4,35.7 91.9,59.7 128.9,59.7 120.4,35.7 		"/>
		<rect x="96.8" y="29.4" fill="#2D8644" width="27.1" height="9.3"/>
	</g>
	<g clip-path="url(#SVGID_2_)">
		<path fill="#FFFFFA" d="M176.4,35.7h-10h-10L145,68c-0.8,2.3-1.2,4.6-1.2,7v70h22.6H189V75c0-2.4-0.4-4.7-1.2-7L176.4,35.7z"/>
		<path fill="#B79663" d="M166.4,74.9c-10,0-14.1,10.1-14.1,10.1v41.3h14.1h14.1V85.1C180.5,85.1,176.4,74.9,166.4,74.9z"/>
		<polygon fill="#C1B6B6" points="166.4,35.7 156.4,35.7 147.9,59.7 184.9,59.7 176.4,35.7 		"/>
		<rect x="152.8" y="29.4" fill="#2D8644" width="27.1" height="9.3"/>
	</g>
	<g clip-path="url(#SVGID_2_)">
		<path fill="#FFFFFA" d="M232.4,35.7h-10h-10L201,68c-0.8,2.3-1.2,4.6-1.2,7v70h22.6H245V75c0-2.4-0.4-4.7-1.2-7L232.4,35.7z"/>
		<path fill="#B79663" d="M222.4,74.9c-10,0-14.1,10.1-14.1,10.1v41.3h14.1h14.1V85.1C236.5,85.1,232.4,74.9,222.4,74.9z"/>
		<polygon fill="#C1B6B6" points="222.4,35.7 212.4,35.7 203.9,59.7 240.9,59.7 232.4,35.7 		"/>
		<rect x="208.8" y="29.4" fill="#2D8644" width="27.1" height="9.3"/>
	</g>
	<g clip-path="url(#SVGID_2_)">
		<polygon fill="#D2EEFF" points="314.9,111.1 293.9,111.1 266,111.1 280,145 293.9,145 314.9,145 328.8,145 342.8,111.1 		"/>
		<rect x="263.8" y="104.7" fill="#306189" width="81.2" height="11.9"/>
	</g>
	<g clip-path="url(#SVGID_2_)">
		<polygon fill="#D2EEFF" points="401.3,111.1 380.3,111.1 352.4,111.1 366.4,145 380.3,145 401.3,145 415.2,145 429.2,111.1 		"/>
		<rect x="350.2" y="104.7" fill="#306189" width="81.2" height="11.9"/>
	</g>
	<g clip-path="url(#SVGID_2_)">
		<polygon fill="#D2EEFF" points="486.3,111.1 465.4,111.1 437.4,111.1 451.4,145 465.4,145 486.3,145 500.3,145 514.2,111.1 		"/>
		<rect x="435.3" y="104.7" fill="#306189" width="81.2" height="11.9"/>
	</g>
	<g clip-path="url(#SVGID_2_)">
		<polygon fill="#D2EEFF" points="446.5,69.4 425.6,69.4 397.7,69.4 411.6,103.3 425.6,103.3 446.5,103.3 460.5,103.3 474.5,69.4 		
			"/>
		<rect x="395.5" y="63" fill="#306189" width="81.2" height="11.9"/>
	</g>
	<g clip-path="url(#SVGID_2_)">
		<polygon fill="#D2EEFF" points="404.6,28.4 383.6,28.4 355.7,28.4 369.7,62.3 383.6,62.3 404.6,62.3 418.5,62.3 432.5,28.4 		"/>
		<rect x="353.5" y="22" fill="#306189" width="81.2" height="11.9"/>
	</g>
	<g clip-path="url(#SVGID_2_)">
		<polygon fill="#D2EEFF" points="360.1,69.4 339.2,69.4 311.3,69.4 325.2,103.3 339.2,103.3 360.1,103.3 374.1,103.3 388.1,69.4 		
			"/>
		<rect x="309.1" y="63" fill="#306189" width="81.2" height="11.9"/>
	</g>
	<g clip-path="url(#SVGID_2_)">
		<rect x="529.2" y="34.1" fill="#FFFEF8" width="54" height="111"/>
		<rect x="529.2" y="116.6" fill="#F2D95F" width="54" height="10.5"/>
		<ellipse fill="#F2D95F" cx="555.4" cy="77.6" rx="17.2" ry="25.5"/>
	</g>
	<g clip-path="url(#SVGID_2_)">
		<rect x="589.2" y="34.1" fill="#FFFEF8" width="54" height="111"/>
		<rect x="589.2" y="116.6" fill="#F2D95F" width="54" height="10.5"/>
		<ellipse fill="#F2D95F" cx="615.4" cy="77.6" rx="17.2" ry="25.5"/>
	</g>
	<g clip-path="url(#SVGID_2_)">
		<rect x="649.2" y="34.1" fill="#FFFEF8" width="54" height="111"/>
		<rect x="649.2" y="116.6" fill="#EF6085" width="54" height="10.5"/>
		<ellipse fill="#EF6085" cx="675.4" cy="77.6" rx="17.2" ry="25.5"/>
	</g>
	<g clip-path="url(#SVGID_2_)">
		<rect x="710.6" y="34.1" fill="#FFFEF8" width="54" height="111"/>
		<rect x="710.6" y="116.6" fill="#EF6085" width="54" height="10.5"/>
		<ellipse fill="#EF6085" cx="736.9" cy="77.6" rx="17.2" ry="25.5"/>
	</g>
	<g clip-path="url(#SVGID_2_)">
		<rect x="320.6" y="650.3" fill="#5A7377" width="385.1" height="12.4"/>
		<rect x="377.7" y="846.6" fill="#5A7377" width="283.7" height="12.4"/>
		<polygon fill="#5A7377" points="402.6,929.8 303.1,578.5 289.4,578.5 392.7,942.2 608.8,942.2 608.8,929.8 		"/>
		<polygon fill="#5A7377" points="661.5,858.7 718,650.1 704.3,650.1 648,858.7 		"/>
		<rect x="391.4" y="656.5" fill="#5A7377" width="9.9" height="197.5"/>
		<rect x="474.7" y="656.5" fill="#5A7377" width="9.9" height="197.5"/>
		<rect x="557.9" y="656.5" fill="#5A7377" width="9.9" height="197.5"/>
		<rect x="641.1" y="656.5" fill="#5A7377" width="9.9" height="197.5"/>
		<rect x="233.4" y="575.7" fill="#5A7377" width="86.1" height="21.5"/>
		<rect x="288.7" y="642.8" fill="#B6D3D6" width="385.1" height="12.4"/>
		<rect x="345.8" y="839.1" fill="#B6D3D6" width="283.7" height="12.4"/>
		<polygon fill="#B6D3D6" points="370.7,922.4 271.2,571 257.5,571 360.7,934.8 576.9,934.8 576.9,922.4 		"/>
		<polygon fill="#B6D3D6" points="629.6,851.3 686,642.6 672.4,642.6 616.1,851.3 		"/>
		<rect x="359.5" y="649" fill="#B6D3D6" width="9.9" height="197.5"/>
		<rect x="442.7" y="649" fill="#B6D3D6" width="9.9" height="197.5"/>
		<rect x="526" y="649" fill="#B6D3D6" width="9.9" height="197.5"/>
		<rect x="609.2" y="649" fill="#B6D3D6" width="9.9" height="197.5"/>
		<rect x="201.5" y="568.3" fill="#B6D3D6" width="86.1" height="21.5"/>
		<rect x="172.1" y="562.7" fill="#C95050" width="76.2" height="37.7"/>
		<circle fill="#3F4547" cx="541.4" cy="961.3" r="23.3"/>
		<polygon fill="#707E82" points="535.6,934.5 543.4,934.5 557.6,934.5 549.2,963.3 543.4,963.3 535.6,963.3 529.8,963.3 
			521.4,934.5 		"/>
		<circle fill="#3F4547" cx="414.2" cy="961.3" r="23.3"/>
		<polygon fill="#707E82" points="408.4,934.5 416.2,934.5 430.5,934.5 422,963.3 416.2,963.3 408.4,963.3 402.6,963.3 394.2,934.5 
					"/>
	</g>
	<g clip-path="url(#SVGID_2_)">
		<path fill="#263B42" d="M154,920.3c0,0-17,11.4-12.8,28.4l5.7,14.2v14.2h7.1l2.8-17l36.9,19.9h36c3.7,0,6.6-3,6.6-6.6v0
			c0-11.1-7.7-20.7-18.5-23.2l0,0L154,920.3z"/>
		<path fill="#E8B179" d="M145.5,747l-2.8,51.1l12.8,144.9l43.2,16.8c8.1,3.1,17.1-1.4,19.4-9.7l0,0l-42.6-25.6l15.6-181.8
			L145.5,747z"/>
		<path fill="#263B42" d="M111.4,920.3c0,0-17,11.4-12.8,28.4l5.7,14.2v14.2h7.1l2.8-17l36.9,19.9h36c3.7,0,6.6-3,6.6-6.6v0
			c0-11.1-7.7-20.7-18.5-23.2l0,0L111.4,920.3z"/>
		<path fill="#FAC68A" d="M102.9,747l-2.5,41.7c-1.2,20.5-0.6,41,1.7,61.4l10.7,93l43.2,16.8c8.1,3.1,17.1-1.4,19.4-9.7h0
			l-42.6-25.6l15.6-181.8L102.9,747z"/>
		<path fill="#FAC68A" d="M266.2,554.8l5.3-1.1c21.8-4.7,44.5,1,61.5,15.3l0,0c3.3,6.6,0.6,14.7-6,17.9l-3.9,1.9l-35.5-11.4
			l-31.3-4.3L266.2,554.8z"/>
		<path fill="#263B42" d="M65.9,566.6l29.8,198.9h96.6l31.3-198.9c0,0-58.2-110.8-56.8-117.9C168.2,441.6,65.9,566.6,65.9,566.6z"/>
		<polygon fill="#263B42" points="199.5,319.4 239,467 293.2,549.1 257.7,584.6 199.2,489.7 175.3,404.7 		"/>
		<polygon fill="#EAA663" points="166.8,339.3 105.7,339.3 105.7,249.8 145,245 		"/>
		<polygon fill="#2B434D" points="104.3,291 54.6,306.7 83,487.1 57.4,580.8 182.4,580.8 192.4,529.7 199.5,582.2 236.4,582.2 
			198.1,494.2 199.5,319.4 		"/>
		<path fill="#FFD4A9" d="M189.9,128.3l-63,29L67.8,170c0,0-9.4,12.1,23.7,69.3c13.9,23.9,32.2,37.4,48.8,45.1
			c26.3,12.1,48.8,4.4,62.2-21.3c8.5-16.2,14.7-38.1,11-65.5C204.8,132.1,189.9,128.3,189.9,128.3z"/>
		<path fill="#FFD4A9" d="M204.1,195.7c0,0,12.3,20.4,21.2,30c8.2,9-20.4,16.1-20.4,16.1L204.1,195.7z"/>
		<path fill="#88542F" d="M134.4,156.4l-14.7,126.3l-52.6-10.5c0,0-34-94.9,5.3-150.5C110.2,68,183.9,89,189.2,115.3
			c0,0,44.2-2.1,42.1,55.8l-95.8,8.4L134.4,156.4z"/>
		<ellipse fill="#88542F" cx="191.3" cy="196.9" rx="6.3" ry="8.9"/>
		<path fill="#DD6450" d="M165,253.2c0,0,17.9,7.4,34.7,6.3c0,0-6.3,8.4-15.8,9.5C174.4,270,165,253.2,165,253.2z"/>
		<polygon fill="#FFFFFF" points="104.3,291 172.5,426 173.9,312.3 		"/>
		<g>
			<g>
				<g>
					<polygon fill="#DE7D66" points="95.3,533.4 108.2,536.7 117.6,722.6 103.5,708 88.3,714.5 					"/>
				</g>
				<g>
					<polygon fill="#C15D49" points="95.3,533.4 289.7,512.4 295.6,520.5 108.2,536.7 					"/>
				</g>
				<g>
					<polygon fill="#FF9F1A" points="117.6,722.6 317.9,687.4 295.6,520.5 108.2,536.7 					"/>
				</g>
			</g>
			<g>
				<path fill="#F8DEFC" d="M178.8,568.6c-11.3-29.1-18.2-78.6-18.5-80.7l6.9-1c0.1,0.5,7.1,50.7,18.1,79.1L178.8,568.6z"/>
			</g>
			<g>
				<polygon fill="#FBFFFC" points="148.1,569 243.5,533.4 261.3,546.4 157.8,578.7 				"/>
			</g>
			<g>
				<polygon fill="#4E956F" points="162.6,577.1 148.1,569 159.4,698.3 167.5,688.6 180.4,698.3 				"/>
			</g>
			<g>
				<polygon fill="#91D7B3" points="180.4,698.3 296.8,657.9 261.3,546.4 162.6,577.1 				"/>
			</g>
		</g>
		<path fill="#FAC68A" d="M175.3,498.4l10.7-2.3c18.3-3.9,37.4,0.8,51.8,12.9l0,0c2.5,2.1,3.2,5.7,1.8,8.6l-7.4,14.9l-35.5-11.4
			l-31.3-4.3L175.3,498.4z"/>
		<polygon fill="#263B42" points="54.6,306.7 30.4,364.9 63.1,481.4 175.3,536.8 185.3,491.3 92.9,440.2 77.3,336.5 		"/>
	</g>
</g>
</svg>
